<svg width="750" height="157" viewBox="0 0 750 157" fill="none" xmlns="http://www.w3.org/2000/svg">
<g clip-path="url(#clip0_5364_154627)">
<path d="M380.832 50.7649C385.284 50.9179 389.583 51.5683 393.459 53.9401C395.723 55.3173 397.566 57.1535 399.523 59.4489C399.523 56.8857 399.523 54.6287 399.523 52.2951C403.322 52.2951 406.93 52.2951 410.96 52.2951C410.96 64.0778 410.96 75.8987 410.96 87.6813C410.96 93.2283 410.96 98.7371 410.96 104.437C407.122 104.437 403.476 104.437 399.676 104.437C399.676 102.18 399.676 99.923 399.676 97.7042C399.101 97.5129 398.986 97.8955 398.794 98.125C393.689 104.437 386.819 106.426 378.99 105.929C366.056 105.126 355.387 93.2283 355.042 79.992C354.735 68.4006 359.34 59.5636 369.434 53.7106C372.965 51.6448 376.879 50.9944 380.832 50.7649ZM382.559 95.1411C392.154 95.4089 399.369 88.5229 399.638 78.8826C399.907 69.4718 393.037 61.9355 383.903 61.6677C373.924 61.3616 366.594 68.2093 366.363 78.041C366.095 87.6431 373.003 94.8733 382.559 95.1411Z" fill="#FDFCFD"/>
<path d="M423.281 94.1847C423.32 87.5665 423.358 80.9484 423.358 74.3302C423.358 67.712 423.358 61.0938 423.358 54.4757C423.358 53.7871 423.358 53.0985 423.358 52.0656C425.392 52.0656 427.273 52.0656 429.192 52.0656C430.919 52.0656 432.607 52.0656 434.411 52.0656C434.872 54.2079 434.45 56.2354 434.757 58.6455C437.136 55.279 440.13 53.0985 443.699 51.7978C443.967 51.7213 444.236 51.683 444.505 51.6065C449.571 50.4588 454.637 50.3441 459.511 52.4481C467.225 55.7763 470.487 62.165 470.986 70.1221C471.293 74.7893 471.101 79.5329 471.178 84.2383C471.178 90.933 471.178 97.5894 471.178 104.399C467.34 104.399 463.694 104.399 460.01 104.399C459.703 103.71 459.856 102.983 459.856 102.295C459.856 92.9988 459.856 83.7028 459.856 74.4067C459.856 72.5704 459.703 70.6959 459.166 68.9362C457.861 64.7281 455.021 62.318 450.684 61.6294C440.936 60.0992 434.718 65.761 434.641 76.3195C434.565 85.1182 434.641 93.9169 434.603 102.677C434.603 103.328 435.102 104.284 433.951 104.59C430.496 104.59 427.004 104.59 423.281 104.59C423.281 100.956 423.281 97.5894 423.281 94.1847Z" fill="#FDFCFD"/>
<path d="M349.822 103.749C349.707 104.131 349.592 104.437 349.093 104.475C344.871 104.935 340.649 105.202 336.504 104.322C329.788 102.869 326.296 98.8902 325.567 92.0424C325.259 88.982 325.336 85.9216 325.298 82.8612C325.298 81.2544 325.221 79.686 325.183 78.0792C325.183 73.0678 325.183 68.0563 325.183 62.8536C321.959 62.8536 318.85 62.8536 315.703 62.8536C315.703 59.1811 315.703 55.6999 315.703 52.0273C318.889 52.0273 321.997 52.0273 325.259 52.0273C325.259 48.1635 325.259 44.4528 325.259 40.7038C329.059 39.5943 332.705 38.4849 336.581 37.3373C336.581 42.2722 336.581 47.0159 336.581 51.9508C340.995 51.9508 345.255 51.9508 349.63 51.9508C349.63 55.6233 349.63 59.1046 349.63 62.8153C345.37 62.8153 341.148 62.8153 336.812 62.8153C336.735 63.3509 336.696 63.657 336.696 63.9248C336.696 72.1497 336.658 80.3746 336.735 88.5995C336.773 92.1572 338.423 93.8022 341.954 94.1847C344.449 94.4525 346.944 94.2613 349.822 94.223C349.822 97.4365 349.822 100.612 349.822 103.749Z" fill="#FDFCFD"/>
<path d="M204.254 78.8826C204.254 71.9201 206.173 65.608 210.74 60.1757C213.081 57.4213 215.883 55.2408 218.953 53.4428C225.708 50.3824 232.578 49.9616 239.601 52.4482C241.405 53.0985 243.055 54.0549 244.59 55.2408C246.087 56.3502 247.277 57.7274 248.773 59.4489C248.773 56.8475 248.773 54.5904 248.773 52.2951C252.611 52.2951 256.257 52.2951 259.903 52.2951C260.441 52.9455 260.21 53.7488 260.21 54.4757C260.249 67.9798 260.21 81.484 260.249 94.9881C260.249 95.7532 260.325 96.5183 260.325 97.2834C260.325 99.617 260.325 101.989 260.325 104.475C256.411 104.475 252.765 104.475 248.889 104.475C248.889 102.257 248.889 99.9996 248.889 97.7425C248.044 97.7042 247.967 98.3163 247.66 98.6606C241.059 105.967 230.045 108.186 220.373 104.055C220.028 103.902 219.682 103.749 219.337 103.596C212.851 100.114 208.322 94.9116 205.712 88.0256C205.252 85.9981 204.791 84.0088 204.331 81.9813C204.292 80.9101 204.292 79.9155 204.254 78.8826ZM215.652 78.6531C215.844 88.4847 222.868 95.3324 232.654 95.1411C242.441 94.9499 249.08 87.7579 248.85 77.5054C248.658 68.2859 241.213 61.4382 231.58 61.6677C222.369 61.859 215.461 69.204 215.652 78.6531Z" fill="#FDFCFD"/>
<path d="M278.555 88.1021C282.009 94.7586 288.649 97.3599 295.595 94.8351C297.514 94.1465 298.857 92.8841 299.164 90.7418C299.51 88.4847 298.474 86.9545 296.67 85.8068C294.521 84.4679 292.179 83.741 289.762 83.1289C286 82.1726 282.278 81.0632 278.747 79.3417C267.886 73.9477 269.651 60.4053 276.598 55.0878C286.116 47.8192 302.043 50.1528 308.682 60.061C308.989 60.52 309.258 61.0556 309.642 61.7442C306.495 63.5039 303.424 65.2254 300.393 66.9469C299.778 66.7939 299.74 66.2966 299.51 65.9523C296.785 61.3616 289.762 59.6019 285.118 62.318C281.856 64.2308 281.625 68.1711 284.734 70.3134C287.229 72.0731 290.107 72.9148 293.024 73.6034C296.516 74.445 299.894 75.5161 303.117 77.1229C313.825 82.4786 312.712 97.0156 304.077 102.371C295.327 107.804 281.51 107.077 273.719 100.382C271.647 98.6224 270.15 96.4418 268.922 93.7257C272.107 91.8129 275.293 89.9767 278.555 88.1021Z" fill="#FDFCFD"/>
<path d="M749.657 72.7617C750.04 76.5872 750.194 80.3745 749.503 84.1618C748.659 88.5611 746.778 92.4632 744.13 96.0209C740.599 99.9995 736.684 103.442 731.427 104.781C721.563 107.306 712.698 105.853 705.559 97.2833C705.559 99.8465 705.559 102.065 705.559 104.399C701.645 104.399 697.96 104.399 693.969 104.399C693.969 100.994 693.969 97.5894 693.969 94.1847C693.969 88.1786 693.969 82.2107 693.969 76.2046C693.969 66.2582 693.969 56.3118 693.969 46.3655C693.969 41.354 693.969 36.3808 693.969 31.2928C697.883 31.2928 701.568 31.2928 705.559 31.2928C705.559 33.4351 705.559 35.5009 705.559 37.5667C705.406 39.0969 705.406 40.6272 705.559 42.1574C705.406 44.3379 705.406 46.4802 705.559 48.6608C705.559 52.0655 705.559 55.4702 705.559 58.875C705.751 58.8367 705.905 58.875 705.981 58.7984C713.312 49.5407 725.785 49.3111 733.499 52.6011C741.866 56.1971 747.085 62.624 749.311 71.461C749.388 71.92 749.541 72.3408 749.657 72.7617ZM737.452 71.9965C737.375 71.6905 737.337 71.3845 737.222 71.0784C733.921 63.7334 725.746 60.0226 717.533 62.1267C710.126 64.0012 705.099 71.0784 705.598 78.8825C705.444 85.3094 709.282 91.239 715.307 93.8021C721.64 96.5182 729.431 95.0263 734.113 90.2444C738.565 85.6155 740.023 77.7349 737.452 71.9965Z" fill="#FDFCFD"/>
<path d="M487.221 59.1428C492.862 53.3662 499.617 50.4206 507.83 50.9179C513.817 51.2622 518.998 53.328 523.067 57.8421C523.412 58.2629 523.796 58.6455 524.487 59.3341C524.487 56.7709 524.487 54.5904 524.487 52.1038C527.288 52.1038 529.898 52.1038 532.469 52.1038C533.621 52.142 534.734 52.1803 535.885 52.2186C535.885 53.634 535.924 55.0112 535.924 56.4266C535.962 65.8375 535.962 75.2483 536 84.6591C536 91.239 536 97.8572 536 104.514C532.086 104.514 528.401 104.514 524.602 104.514C524.602 102.218 524.602 99.9995 524.602 97.8572C524.026 97.6277 523.873 98.0102 523.719 98.2015C518.499 104.552 511.591 106.465 503.724 105.853C503.34 105.814 502.956 105.814 502.572 105.776C492.248 103.978 485.532 97.8572 481.656 88.3699C481.502 87.9491 481.31 87.5665 481.118 87.184C480.044 82.5551 479.583 77.8879 480.389 73.1825C481.272 67.8267 483.69 63.1978 487.221 59.1428ZM524.487 78.5382C524.602 69.0127 517.655 61.7824 508.252 61.6676C498.504 61.5529 491.404 68.4771 491.289 78.1939C491.174 87.9491 497.967 94.9881 507.6 95.1411C517.31 95.3323 524.371 88.3699 524.487 78.5382Z" fill="#FDFCFD"/>
<path d="M41.2206 7.80403C48.5126 4.47581 56.0348 1.9127 63.9793 0.841554C89.4628 -2.56317 111.684 4.36105 130.528 21.8437C131.987 23.1827 133.33 24.6364 134.712 26.0136C140.008 32.2492 144.575 38.9439 147.837 46.4419C148.988 49.0433 149.948 51.7212 150.984 54.3991C152.059 57.4212 152.097 60.3286 150.14 63.0065C149.142 63.6951 148.144 64.3837 147.146 65.0723C145.304 65.4166 143.692 66.4878 141.812 66.679C140.814 59.7931 138.396 53.3662 135.172 47.2453C128.149 34.009 117.825 24.2156 104.239 17.8269C93.3775 12.739 81.9406 10.7879 69.928 11.8208C58.6446 12.7772 48.2823 16.335 38.9562 22.5323C28.402 29.5713 20.3809 38.8674 14.9694 50.344C12.5132 55.585 11.0164 61.0938 9.71152 66.679C7.86934 66.3347 6.18067 65.6079 4.49199 64.881C0.846001 63.3508 -0.765912 59.9843 0.347076 56.1206C3.5709 45.1413 9.05908 35.3096 16.6581 26.6639C23.4128 18.9746 31.3956 12.8155 40.5681 8.22484C40.7984 8.11007 40.9903 7.95705 41.2206 7.80403Z" fill="#1B1A1B"/>
<path d="M141.771 90.2444C144.112 90.6269 146.338 91.4686 148.411 92.5397C151.212 93.9934 152.44 97.4364 151.519 100.612C147.681 113.465 141.003 124.674 131.485 134.162C126.074 139.556 119.895 143.878 113.332 147.704C106.155 151.3 98.7483 154.207 90.8422 155.585C65.5506 159.984 43.0605 153.94 23.6408 137.184C12.6645 127.773 5.18058 115.99 0.767013 102.295C0.383224 101.071 -0.000564821 99.8847 0.0378141 98.5841C0.114572 95.7914 1.3427 93.6491 3.83732 92.3867C5.71789 91.4303 7.67521 90.7035 9.74767 90.2826C9.86281 90.78 10.0163 91.2773 10.1315 91.7746C13.2785 107.306 20.9927 120.237 33.1972 130.221C48.6255 142.846 66.4716 147.666 86.2368 144.72C99.4775 142.731 111.068 137.069 120.97 128.117C128.07 121.69 133.52 114.077 137.357 105.279C139.43 100.42 141.119 95.4854 141.771 90.2444Z" fill="#1B1A1B"/>
<path d="M9.75 66.7173C11.0549 61.132 12.5517 55.6232 15.0079 50.3823C20.3809 38.8674 28.4021 29.6096 38.9563 22.6089C48.3208 16.4115 58.6831 12.8538 69.9281 11.8974C81.9407 10.8645 93.3392 12.8155 104.239 17.9035C117.825 24.2539 128.149 34.0855 135.172 47.3218C138.434 53.4427 140.814 59.8696 141.812 66.7556C138.127 68.1328 134.481 69.5099 130.528 69.7777C130.605 69.4717 130.528 69.2039 130.298 68.9744L130.26 69.0126C130.221 68.3623 130.336 67.6737 129.876 67.0999C129.838 66.4495 129.914 65.7609 129.492 65.1871C129.492 64.7663 129.454 64.3072 129.108 64.0012C129.108 63.8864 129.108 63.8099 129.07 63.6951C129.07 63.2743 129.032 62.8535 128.686 62.5092C128.686 62.0884 128.648 61.6676 128.302 61.3616C128.302 60.9407 128.264 60.5199 127.919 60.2139C127.88 59.7931 127.88 59.4105 127.535 59.1045C127.381 58.5689 127.266 57.9951 127.036 57.4595C123.198 48.5843 117.671 40.9332 109.957 35.0419C96.8701 25.0572 82.0942 21.3847 65.8983 24.2539C48.3208 27.3525 35.3487 37.1077 26.7135 52.6776C23.7199 58.0716 21.9161 63.9247 20.8799 69.969C17.0804 69.1274 13.3576 68.1328 9.75 66.7173Z" fill="#4D4D4D"/>
<path d="M141.773 90.2444C141.121 95.4853 139.432 100.42 137.36 105.202C133.56 113.963 128.072 121.614 120.972 128.041C111.07 136.992 99.4798 142.654 86.2391 144.643C66.474 147.589 48.6278 142.769 33.1995 130.145C20.995 120.16 13.2809 107.23 10.1338 91.6981C10.0187 91.2007 9.86514 90.7034 9.75 90.2061C13.4344 89.0202 17.0804 87.8725 20.8799 87.1074C20.995 87.49 21.1485 87.8343 21.1869 88.2168C22.9907 98.7371 27.5194 108.033 34.8114 115.761C46.9391 128.576 61.9069 134.621 79.6379 133.588C90.1538 132.976 99.6333 129.533 108.115 123.45C114.563 118.821 119.974 113.236 123.697 106.12C123.85 105.814 123.966 105.508 124.119 105.24L124.081 105.279C124.196 105.087 124.349 104.934 124.464 104.743V104.667C124.58 104.437 124.733 104.208 124.848 103.978V103.902C124.963 103.71 125.117 103.519 125.232 103.328C125.347 103.022 125.501 102.754 125.616 102.448V102.371C125.731 102.142 125.884 101.912 126 101.683V101.606C126.115 101.377 126.23 101.147 126.383 100.956V100.765C126.499 100.459 126.652 100.191 126.767 99.8847V99.923C126.882 99.6552 127.036 99.3874 127.151 99.1579C127.305 98.7753 127.458 98.3928 127.612 98.0102C128.149 96.9391 128.571 95.8679 128.686 94.682C129.032 94.2994 129.07 93.8021 129.07 93.343V93.2283C129.415 92.8457 129.454 92.3867 129.454 91.9276C129.838 91.4685 129.799 90.8947 129.838 90.3591C129.876 90.2826 129.876 90.1679 129.838 90.0913C130.26 89.594 130.221 89.0202 130.221 88.4464C130.26 88.3698 130.26 88.2551 130.221 88.1786C130.298 87.8725 130.375 87.6047 130.452 87.2987C134.405 87.643 138.051 89.0584 141.773 90.2444Z" fill="#4D4D4D"/>
<path d="M123.696 106.159C119.973 113.236 114.562 118.859 108.114 123.488C99.6324 129.571 90.1528 133.014 79.637 133.626C61.8675 134.659 46.8998 128.615 34.8104 115.799C27.5185 108.071 22.9897 98.7754 21.1859 88.2552C21.1092 87.8726 20.994 87.5283 20.8789 87.1457C24.4098 85.6538 28.2476 85.539 31.7017 84.6209C32.5845 84.9652 32.3926 85.692 32.7764 86.1129L32.8147 86.1511C32.8915 86.6484 32.738 87.2223 33.1601 87.6431C33.1601 87.7961 33.1985 87.9491 33.1985 88.1021C33.2369 88.5995 33.1601 89.135 33.5439 89.5558L33.5823 89.5941C33.6207 89.9766 33.5823 90.3975 33.9277 90.7035C35.8083 96.6331 38.6867 102.027 42.7549 106.771C42.87 106.924 43.0235 107.077 43.1387 107.192C43.2538 107.689 43.5224 108.071 43.9446 108.339H43.9062C44.0214 108.454 44.1749 108.607 44.29 108.722C44.4052 108.875 44.5587 108.99 44.6738 109.143L44.6354 109.104C44.7889 109.257 44.9041 109.372 45.0576 109.525L45.0192 109.487C45.1727 109.602 45.2879 109.755 45.4414 109.869V109.831C45.9403 110.52 46.4776 111.17 47.3603 111.4C49.9701 113.542 52.7718 115.378 55.7653 116.985C60.601 119.586 65.859 120.849 71.1936 121.729C74.072 122.264 76.9504 122.226 79.8289 121.767C82.4002 121.27 85.0484 121.04 87.5046 120.237C105.121 114.651 115.713 102.83 118.899 84.5826C122.276 85.233 125.692 85.9216 129.069 86.6102C129.568 86.7249 130.067 86.878 130.374 87.2988C130.297 87.5666 130.259 87.8726 130.182 88.1404C130.182 88.2552 130.182 88.3317 130.182 88.4082C129.721 88.8672 129.875 89.4793 129.798 90.0532C129.798 90.1297 129.798 90.2444 129.798 90.3209C129.376 90.78 129.491 91.3538 129.414 91.8894C129.031 92.2337 129.069 92.731 129.031 93.1901V93.3049C128.685 93.6874 128.685 94.1847 128.647 94.6438C128.532 95.8297 128.109 96.9391 127.572 97.972C127.112 98.2398 127.15 98.6989 127.112 99.1197C126.843 99.311 126.766 99.617 126.728 99.8848V99.8465C126.421 100.038 126.382 100.382 126.344 100.726V100.918C126.229 101.147 126.114 101.377 125.96 101.568V101.645C125.845 101.874 125.692 102.104 125.576 102.333V102.41C125.461 102.716 125.308 102.983 125.193 103.29C125.078 103.481 124.924 103.672 124.809 103.863V103.94C124.694 104.169 124.54 104.399 124.425 104.628V104.705C124.31 104.896 124.156 105.049 124.041 105.241L124.08 105.202C123.965 105.585 123.849 105.853 123.696 106.159Z" fill="#7F7F80"/>
<path d="M129.07 63.6186C129.108 63.6952 129.108 63.8099 129.108 63.9247C129.146 64.3455 129.108 64.8046 129.492 65.1106C129.607 65.7609 129.377 66.4495 129.876 67.0234C129.991 67.6737 129.76 68.4006 130.259 68.9361L130.298 68.8979C130.336 69.1657 130.375 69.4335 130.413 69.7395C126.652 71.1167 122.737 71.6523 118.822 72.3026C118.784 71.6523 118.784 71.0402 118.631 70.3898C116.366 58.6072 110.226 49.2729 100.401 42.5017C91.4584 36.3426 81.4798 33.8942 70.5802 35.1949C60.6017 36.3808 52.0816 40.5507 45.0199 47.5131C38.3804 54.0548 34.3506 62.0502 32.7387 71.2315C32.2014 72.2261 31.2419 72.1113 30.3976 71.9583C27.2121 71.3462 23.9883 70.9254 20.918 69.8543C21.9926 63.8099 23.758 57.9568 26.7516 52.5628C35.3868 36.9929 48.3589 27.276 65.9364 24.1391C82.1323 21.27 96.9081 24.9425 109.995 34.9271C117.748 40.8184 123.236 48.4695 127.074 57.3448C127.304 57.8803 127.419 58.4542 127.573 58.9897C127.65 59.3723 127.65 59.7931 127.957 60.0991C127.995 60.52 127.995 60.9408 128.34 61.2468C128.379 61.6676 128.379 62.0884 128.724 62.3945C128.763 62.8535 128.724 63.3126 129.07 63.6186Z" fill="#7F7F80"/>
<path d="M107.347 73.9094C101.936 74.7893 96.4857 75.0571 91.0359 75.4014C85.4326 75.7456 79.8293 75.8222 74.2643 75.8604C66.3583 75.6309 58.4522 75.3631 50.5846 74.598C48.5121 74.4067 46.3629 74.4067 44.3672 73.7564C44.4823 73.3738 44.5975 73.0295 44.6742 72.647C48.0899 54.973 64.401 43.8407 82.132 47.0924C95.1808 49.5407 106.196 61.2086 107.347 73.9094Z" fill="#FDFCFD"/>
<path d="M83.4355 80.9866C91.4183 81.1396 99.4011 81.6369 107.307 82.7081C107.269 83.3967 107.307 84.1235 107.115 84.8121C104.352 96.4035 97.4822 104.59 86.122 108.416C74.57 112.318 63.939 110.022 54.6897 102.065C48.8178 97.0156 45.5172 90.4357 44.2891 82.8228C52.7708 81.5604 61.2909 81.2161 69.8494 80.9866C74.3781 80.8336 78.9068 80.9866 83.4355 80.9866Z" fill="#FDFCFD"/>
<path d="M44.2905 82.7846C45.557 90.3974 48.8192 96.9773 54.6912 102.027C63.9405 109.984 74.5715 112.279 86.1235 108.377C97.4453 104.552 104.353 96.3652 107.117 84.7738C107.27 84.0852 107.232 83.3967 107.309 82.6698C111.185 83.1671 115.138 83.4349 118.937 84.5443C115.752 102.792 105.198 114.613 87.5435 120.198C85.0489 120.963 82.4391 121.231 79.8678 121.729C76.9893 121.729 74.1109 121.729 71.2325 121.69C65.8595 120.81 60.6399 119.548 55.8042 116.947C52.8106 115.34 50.009 113.542 47.3992 111.361C46.8619 110.711 46.363 110.022 45.4803 109.793V109.831C45.3268 109.716 45.2116 109.563 45.0581 109.449L45.0965 109.487C44.943 109.334 44.8278 109.219 44.6743 109.066L44.7127 109.104C44.5976 108.951 44.444 108.836 44.3289 108.683C44.2138 108.569 44.0603 108.416 43.9451 108.301H43.9835C43.9067 107.804 43.5613 107.459 43.1775 107.153C43.0624 107 42.9089 106.847 42.7938 106.732C38.7256 101.989 35.8472 96.5947 33.9666 90.6652C33.9282 90.2826 33.9282 89.8618 33.6212 89.5558L33.5828 89.5175C33.5444 89.0202 33.6212 88.4846 33.2374 88.0638C33.2374 87.9108 33.199 87.7578 33.199 87.6047C33.199 87.1074 33.2374 86.5718 32.8536 86.1128L32.8152 86.0745C32.8152 85.5007 32.6617 84.9269 33.1607 84.3148C36.7299 83.6262 40.491 83.1671 44.2905 82.7846Z" fill="#B2B2B3"/>
<path d="M107.344 73.9094C106.193 61.1704 95.1783 49.5025 82.0528 47.1307C64.3601 43.9172 48.0107 55.0495 44.595 72.6852C44.5182 73.0678 44.4031 73.4121 44.2879 73.7946C40.8338 73.6034 37.4181 73.0295 33.964 72.5322C33.1965 72.4175 32.5824 72.1879 32.6975 71.2698C34.3094 62.0885 38.3392 54.0931 44.9788 47.5515C52.0405 40.589 60.5606 36.4192 70.5391 35.2332C81.4387 33.9326 91.4172 36.3426 100.359 42.54C110.184 49.3112 116.325 58.6838 118.589 70.4282C118.705 71.0403 118.705 71.6906 118.781 72.3409C114.982 72.9913 111.182 73.5651 107.344 73.9094Z" fill="#B2B2B3"/>
<path d="M586.698 96.48C586.698 99.0814 586.698 101.683 586.698 104.399C582.898 104.399 579.214 104.399 575.261 104.399C575.261 101.759 575.261 99.1197 575.261 96.48C575.299 86.5337 575.338 76.549 575.338 66.6026C575.338 64.5751 575.261 62.5476 575.223 60.52C575.223 59.6401 575.223 58.7603 575.223 57.8804C575.223 55.8146 575.223 53.7871 575.223 51.7213C575.261 45.9447 575.299 40.1299 575.338 34.3534C575.338 33.397 575.338 32.4406 575.338 31.3312C579.099 31.3312 582.745 31.3312 586.66 31.3312C586.66 38.1406 586.66 44.9118 586.66 51.7213C586.66 53.9018 586.66 56.1206 586.66 58.7985C587.964 56.8858 589.269 55.6998 590.497 54.4757C601.09 47.781 612.68 49.9233 620.203 59.9079C622.198 63.963 623.158 68.2476 623.119 72.7617C623.081 76.9698 623.158 81.1397 623.196 85.3478C623.004 87.1458 623.004 88.9437 623.196 90.7417C623.043 91.6216 623.043 92.5015 623.196 93.4196C623.196 97.0156 623.196 100.65 623.196 104.399C619.32 104.399 615.674 104.399 611.683 104.399C611.683 101.912 611.683 99.3875 611.683 96.8626C611.721 88.7907 611.874 80.7188 611.721 72.6087C611.606 66.8704 608.804 63.2361 603.968 61.859C595.295 59.3724 587.734 64.3073 586.89 73.1825C586.199 80.9484 586.66 88.7142 586.698 96.48Z" fill="#FDFCFD"/>
<path d="M681.762 94.1847C681.762 97.5512 681.762 100.918 681.762 104.361C677.847 104.361 674.163 104.361 670.287 104.361C670.287 102.333 670.287 100.344 670.287 97.8572C667.485 101.683 664.3 104.131 660.155 105.049C652.057 106.771 644.65 105.814 638.739 99.3109C637.281 97.6659 636.398 95.6767 635.362 93.8021C634.019 89.6323 633.75 85.3477 633.788 80.9866C633.865 74.2919 633.75 67.5972 633.75 60.9025C633.75 59.8696 633.75 58.8367 633.75 57.8421C633.98 55.9676 633.52 54.0931 633.98 52.0656C635.631 52.0656 637.204 52.0656 638.739 52.0656C640.812 52.0656 642.884 52.0656 645.264 52.0656C645.264 58.0716 645.264 63.8865 645.264 69.7013C645.072 74.5214 645.033 79.3799 645.225 84.2001C645.494 90.6652 649.025 94.376 655.472 95.1793C662.803 96.0592 668.56 91.8129 669.865 84.5826C670.402 81.6752 670.248 78.7678 670.172 75.8221C670.172 72.7617 670.172 69.663 670.21 66.6026C670.402 64.5751 670.287 62.5475 670.21 60.52C670.21 59.4871 670.21 58.4924 670.172 57.4596C670.172 55.7381 670.172 54.0548 670.172 52.2186C674.048 52.2186 677.771 52.2186 681.762 52.2186C681.762 60.2522 681.762 68.2476 681.762 76.2047C681.608 82.2108 681.647 88.1786 681.762 94.1847Z" fill="#FDFCFD"/>
</g>
<defs>
<clipPath id="clip0_5364_154627">
<rect width="750" height="157" fill="white"/>
</clipPath>
</defs>
</svg>
