<svg width="510" height="267" viewBox="0 0 510 267" fill="none" xmlns="http://www.w3.org/2000/svg">
<g clip-path="url(#clip0_5364_161670)">
<path d="M33.3914 74.7772C35.4836 73.8757 37.5332 72.9743 39.4974 72.0728C41.9312 72.7167 43.8954 74.5625 46.6281 74.5196C46.6281 72.0728 46.6281 69.8836 46.6281 67.6944C48.1653 66.149 49.6598 64.6895 51.4959 62.8437C50.2576 62.4145 49.2755 61.7276 48.3788 61.8135C44.9629 62.1998 43.5111 60.0535 42.2728 57.478C42.1447 57.1775 41.9739 56.8341 41.7604 56.4048C39.2412 56.7911 39.1985 59.753 36.9354 60.5686C36.9354 60.1394 36.8927 59.6243 36.9354 59.1521C37.1062 57.478 37.3197 55.8038 37.5332 54.0868C37.8321 52.0693 38.131 50.0518 38.4299 47.9913C38.5153 47.4333 38.7288 46.8752 38.6861 46.3172C38.4726 43.3982 39.1131 40.7368 40.3513 38.1183C41.3761 35.972 41.5469 33.3965 42.7852 31.4648C44.4505 28.8892 46.6281 26.6141 48.9339 24.5537C51.2824 22.3645 53.3319 19.8747 56.3636 18.3294C57.9861 17.5138 59.0109 15.4963 60.2919 13.951C62.0426 11.8476 63.6651 9.70128 65.4585 7.5979C67.2946 5.40867 69.2587 3.34822 71.1375 1.20192C72.5039 -0.386345 73.913 -0.472197 75.3647 1.28777C77.9267 4.42137 80.4033 7.68375 82.8798 10.8603C84.9721 13.5646 87.107 16.3119 89.1993 19.0162C90.0533 20.1323 90.7792 21.3342 91.6332 22.4074C93.5119 24.8542 95.4761 27.258 97.3976 29.6619C98.1234 30.5633 98.8493 31.5077 99.6606 32.5809C98.9774 33.1818 98.5077 33.654 97.9953 34.0403C89.9679 31.2502 82.1539 28.46 76.0479 22.4503C74.6389 22.9654 74.1692 23.8239 74.1692 25.1117C74.1692 29.2756 73.9557 33.3965 74.0411 37.5603C74.0838 39.2344 74.5108 40.9085 75.0231 42.4968C76.2187 46.0596 77.6278 49.6225 78.9515 53.1424C79.4639 54.4731 80.1898 55.6751 80.6167 57.0058C81.001 58.1648 80.6594 59.1092 79.592 59.9247C76.9019 61.9423 74.2546 64.0456 71.6926 66.2349C70.7532 67.0505 69.1306 67.6085 69.8138 69.669C70.7532 69.2397 71.6499 68.9821 72.3758 68.4241C75.4074 66.149 78.4818 63.8739 81.2999 61.3842C84.4597 58.594 87.4913 60.354 88.5588 63.0583C89.7544 65.9773 91.9321 68.1665 93.5546 70.785C94.1524 71.7294 94.921 72.7596 94.9637 73.7899C95.1345 76.2366 96.7571 77.6961 99.0201 78.2971C100.515 78.7263 101.881 79.4132 103.29 80.0571C103.674 80.2288 103.888 80.7439 104.4 81.3019C99.5752 84.6501 93.8535 85.6374 88.9004 88.3847C89.3701 89.0286 89.669 89.4149 89.9252 89.7583C90.1814 89.7154 90.3522 89.7583 90.4803 89.7154C94.7075 87.9984 98.892 86.3243 103.119 84.6072C103.504 84.4355 103.973 84.3497 104.272 84.0492C107.09 81.3448 110.592 81.6024 114.05 81.6882C116.698 81.7741 119.302 81.7741 121.95 81.8599C125.664 81.9887 128.44 83.8345 130.66 86.7106C131.258 87.4833 131.77 88.2989 132.454 89.0286C133.777 90.4881 134.418 92.0763 133.777 94.4373C131.642 95.2958 129.251 96.2402 126.903 97.2704C124.81 98.2148 122.761 99.3309 120.669 100.447C119.003 101.305 117.167 102.035 115.844 103.28C114.136 104.868 112.727 106.843 111.446 108.818C109.524 111.736 109.14 114.999 109.61 118.39C109.78 119.635 109.951 121.051 108.072 121.695C107.432 121.18 106.663 120.579 105.98 119.935C103.589 117.617 101.155 115.256 98.8066 112.895C95.9885 110.062 92.8714 110.921 89.7544 112.123C88.6442 112.552 87.5767 113.11 86.5519 113.539C81.428 111.178 82.0685 106.585 82.3247 101.949C79.6347 101.906 77.7132 103.452 75.5782 104.353C73.486 103.366 71.351 102.336 68.8318 101.134C68.8744 102.164 68.8745 102.894 68.9598 103.581C69.1306 104.525 69.3868 105.469 69.6003 106.457C69.9419 108.345 69.4722 109.891 67.8924 111.136C67.2519 111.651 66.953 112.552 66.3979 113.411C68.8318 114.312 70.924 115.085 73.0163 115.857C73.059 116.029 73.1444 116.201 73.1871 116.372C72.7174 116.673 72.2477 117.145 71.7353 117.231C68.8745 117.617 65.8855 117.531 63.1527 118.304C58.5839 119.592 53.9724 118.991 49.4036 119.034C35.9533 119.163 22.5031 119.077 9.05278 119.077C7.55831 119.077 6.06383 119.377 4.56936 119.249C3.20298 119.163 1.87931 118.69 0.0859375 118.261C0.598329 116.63 0.939923 115.471 1.32422 114.355C2.2636 111.522 3.28838 108.732 4.18507 105.899C4.69746 104.353 5.20985 103.151 7.00322 102.55C12.853 100.576 18.6601 98.4294 24.4245 96.2402C26.6449 95.4246 27.1146 93.1924 27.7978 91.2178C28.1821 90.1876 28.3956 88.9857 28.9933 88.1272C30.9148 85.2511 32.1531 82.1604 32.452 78.6834C32.4947 77.5244 33.0071 76.2366 33.3914 74.7772Z" fill="white"/>
<path d="M109.909 182.178C112.556 186.471 115.246 190.806 117.851 195.099C118.235 195.743 118.577 196.473 118.619 197.202C118.662 197.717 118.15 198.233 117.893 198.748C113.752 197.417 110.763 195.013 108.5 191.493C107.816 191.536 107.091 191.579 106.023 191.622C105.724 192.953 105.425 194.283 105.084 195.614C104.144 199.52 103.034 203.384 100.899 206.818C98.935 209.994 96.7573 213.042 93.4268 215.231C93.0425 214.888 92.6582 214.502 92.2312 214.115C93.0852 212.484 93.8538 211.025 94.5797 209.479C95.1775 208.277 95.2629 207.118 93.6403 206.389C92.7009 207.977 91.7188 209.565 90.7794 211.153C90.694 211.11 90.6086 211.067 90.5232 211.067C90.5232 211.926 90.4805 212.785 90.5232 213.6C90.5659 214.673 90.5232 215.618 89.5839 216.519C89.0715 217.034 88.858 218.021 88.7726 218.794C88.4737 221.971 86.8511 224.546 85.3566 227.208C85.2285 227.422 84.8869 227.508 84.588 227.68C84.033 227.079 83.4779 226.478 82.9655 225.877C81.5991 226.135 81.3856 227.079 81.471 228.152C81.6845 230.599 80.8732 232.745 79.8911 234.891C79.4641 235.836 79.5495 236.952 79.3787 238.025C79.1652 239.356 78.9517 240.644 78.6101 241.931C78.2259 243.477 77.7135 244.979 77.1584 246.782C76.646 244.722 76.1763 242.876 75.7493 240.987C74.6818 240.729 74.2975 241.287 74.2975 242.232C74.2975 247.812 74.2548 253.393 74.3829 258.93C74.4256 260.132 75.1515 261.334 75.4504 262.579C75.7493 263.909 75.9201 265.24 76.1336 266.399C74.6391 267.429 73.9559 266.571 73.4862 265.841C71.1378 262.45 68.2769 259.402 66.6117 255.539C66.569 255.496 66.5263 255.41 66.4836 255.367C63.7508 252.062 62.5125 247.941 60.9326 244.035C60.0787 241.845 59.8225 239.356 59.6944 236.952C59.4382 232.702 58.9258 228.41 60.3776 224.203C60.5911 223.602 60.5057 222.915 60.463 222.271C60.3349 219.739 60.7192 217.421 61.9147 215.103C62.3844 214.244 61.7012 212.785 61.5304 211.754C60.3349 211.11 59.6517 211.282 59.4809 212.312C58.8831 215.832 56.62 218.923 56.8335 222.743C56.9616 225.405 55.9368 227.937 53.3322 229.869C52.9479 229.139 52.5209 228.624 52.3074 228.023C51.9658 226.95 52.0085 225.705 51.4534 224.761C50.2578 222.7 50.3859 220.511 50.3859 218.322C50.3859 215.618 50.4286 212.87 50.3432 210.166C50.3005 209.179 49.9589 208.234 49.9162 207.29C49.8735 206.56 50.0443 205.788 50.2151 205.058C50.5567 203.856 50.3432 202.997 48.678 202.568C48.9769 206.431 46.8419 210.037 48.2937 214.029C48.1229 214.33 47.824 214.802 47.397 215.403C46.9273 215.103 46.3295 214.931 46.2441 214.587C45.9879 213.729 45.9452 212.785 45.7744 211.84C45.6463 210.939 45.3047 210.037 45.3474 209.136C45.4328 207.161 45.6463 205.187 45.9025 203.255C46.7565 197.331 48.4645 191.622 51.6669 186.6C54.8267 181.663 58.7123 177.285 64.1351 174.58C65.8858 173.722 67.5937 173.679 69.4298 174.494C72.6323 175.954 75.8774 177.328 79.2079 178.444C81.044 179.045 83.0936 178.959 84.9723 179.431C92.3166 181.191 99.789 180.118 107.219 180.461C108.201 180.504 109.183 181.062 110.165 181.406C110.08 181.792 109.994 182.007 109.909 182.178ZM84.6734 219.653C84.6734 219.481 84.6734 219.352 84.6307 219.18C84.2037 219.223 83.7768 219.223 83.3071 219.266C83.4779 219.739 83.6914 219.91 83.9049 219.91C84.161 219.867 84.4172 219.739 84.6734 219.653ZM83.7341 222.4C83.7768 222.271 83.9049 222.142 83.8622 222.057C83.8195 221.971 83.6487 221.885 83.5633 221.928C83.4779 221.971 83.4779 222.142 83.3925 222.228C83.5206 222.314 83.606 222.357 83.7341 222.4Z" fill="white"/>
<path d="M239.501 141.184C240.141 139.724 240.867 138.308 241.465 136.848C244.454 129.336 247.4 121.781 250.346 114.226C253.165 106.843 255.897 99.4597 258.758 92.0764C259.783 89.415 261.619 87.6121 264.608 87.2687C266.743 87.0111 268.878 86.7106 271.269 86.3672C271.269 87.4404 271.44 88.0842 271.226 88.6423C268.067 96.7124 264.779 104.74 261.619 112.853C258.545 120.708 255.513 128.606 252.439 136.505C249.706 143.545 247.016 150.542 244.283 157.582C242.917 161.144 241.636 164.707 240.269 168.27C240.056 168.828 239.629 169.3 239.074 170.116C233.309 154.663 227.716 139.596 222.079 124.486C221.951 124.443 221.823 124.4 221.652 124.357C215.418 139.381 210.081 154.748 203.975 169.815C203.762 169.773 203.591 169.773 203.377 169.73C202.139 166.381 200.858 163.076 199.62 159.728C198.168 155.907 196.716 152.044 195.264 148.224C193.3 142.858 191.379 137.492 189.372 132.126C187.408 126.846 185.315 121.609 183.309 116.33C181.686 111.994 180.021 107.659 178.612 103.237C176.946 98.0431 174.043 94.2227 168.449 92.6344C168.876 90.2735 170.2 88.6423 172.079 87.4404C175.068 85.5516 179.978 86.2814 182.54 88.6423C184.461 90.4452 185.871 92.5915 186.853 95.1241C188.774 100.275 190.952 105.341 192.873 110.449C193.983 113.325 194.837 116.33 195.777 119.249C197.143 123.412 198.552 127.619 199.919 131.783C200.73 134.187 201.456 136.634 202.267 138.995C202.523 139.767 202.95 140.54 203.505 141.699C204.317 139.853 205 138.394 205.598 136.848C208.757 128.478 211.832 120.064 215.162 111.694C216.016 109.504 216.102 107.659 215.12 105.598C214.479 104.267 214.137 102.808 213.582 101.391C211.405 96.0256 209.611 94.2656 204.402 92.3769C204.701 89.5437 207.733 86.6248 210.551 86.3243C216.315 85.6804 220.158 88.6423 222.165 93.5359C224.855 100.104 227.203 106.843 229.595 113.539C231.687 119.334 233.694 125.172 235.658 130.967C236.768 134.273 237.793 137.664 238.818 141.012C239.116 141.141 239.287 141.184 239.501 141.184Z" fill="white"/>
<path d="M366.575 131.568C366.063 131.483 365.721 131.354 365.423 131.397C360.213 132.599 355.004 132.341 349.752 132.041C347.532 131.912 345.482 131.139 343.902 129.508C342.023 127.576 341.255 125.301 342.109 122.64C342.536 121.223 342.664 119.721 343.262 118.39C343.774 117.274 344.842 116.416 345.653 115.428C345.866 115.471 346.08 115.557 346.251 115.6C346.464 116.201 346.763 116.802 346.891 117.446C347.66 121.309 349.709 123.198 353.424 123.885C361.238 125.344 369.095 124.786 376.951 124.099C379.556 123.885 382.203 124.056 385.15 124.056C384.808 124.743 384.637 125.387 384.253 125.859C380.666 130.753 377.079 135.603 373.45 140.497C368.967 146.55 364.44 152.559 360 158.612C359.658 159.084 359.53 159.728 359.274 160.372C361.281 161.488 363.245 161.102 365.081 160.93C367.942 160.672 370.845 160.243 373.621 159.513C377.464 158.526 377.848 157.839 377.805 153.89C377.805 153.418 377.805 152.903 377.805 152.473C380.624 151.014 384.381 153.804 385.876 156.723C388.309 161.574 384.552 166.854 381.008 167.669C377.25 168.528 373.365 169.3 369.479 169.386C361.11 169.644 352.698 169.429 344.329 169.386C343.774 169.386 343.219 169.257 342.322 169.172C342.578 168.399 342.664 167.755 343.005 167.24C346.678 161.788 350.392 156.423 354.065 150.971C357.993 145.176 361.879 139.338 365.764 133.5C366.148 133.071 366.277 132.341 366.575 131.568Z" fill="white"/>
<path d="M508.12 147.708C510.127 153.031 510.938 158.225 508.462 163.334C506.498 167.412 502.783 169.3 498.555 169.558C495.268 169.772 491.894 169.386 488.607 168.871C483.098 168.055 480.793 164.235 479.81 159.384C479.426 157.496 479.512 155.521 479.512 153.632C479.512 135.99 479.512 118.304 479.597 100.662C479.597 97.5709 478.06 95.6821 476.224 94.7807C475.156 94.2656 474.003 94.008 472.68 93.5787C474.601 90.6598 476.736 88.3418 480.067 87.5262C482.202 87.011 485.703 88.4276 487.112 91.8617C488.735 95.8967 488.393 100.103 488.35 104.31C488.265 110.706 488.308 117.145 488.308 123.927C493.859 123.927 499.367 123.927 504.79 123.927C505.003 126.374 501.374 131.611 499.025 132.77C495.652 134.487 491.894 133.543 488.478 134.101C488.308 134.358 488.137 134.487 488.137 134.616C488.094 140.883 487.923 147.193 488.18 153.461C488.308 156.036 488.905 158.826 491.937 160.028C497.531 162.26 504.363 158.998 506.028 153.203C506.412 151.915 506.711 150.585 507.138 149.297C507.309 148.739 507.778 148.267 508.12 147.708Z" fill="white"/>
<path d="M428.829 165.308C427.249 168.184 424.986 169.601 422.168 168.699C419.862 167.969 417.898 166.252 415.464 164.793C415.037 165.136 414.183 165.737 413.372 166.381C407.992 170.803 400.178 171.06 394.669 166.81C393.004 165.523 391.68 163.849 391.382 161.573C391.125 159.556 390.613 157.538 390.528 155.521C390.357 150.584 392.919 147.236 397.146 145.133C400.519 143.459 406.924 145.133 409.187 148.138C409.571 148.653 409.614 149.34 409.956 150.37C408.333 150.37 407.18 150.327 405.985 150.37C401.587 150.584 398.769 153.933 399.665 158.268C400.306 161.402 403.167 163.205 406.625 162.733C411.621 162.089 414.866 158.869 415.208 153.804C415.507 148.996 415.293 144.103 414.994 139.252C414.738 135.732 410.767 131.783 407.095 131.955C404.704 132.04 402.27 131.955 399.836 131.955C398.726 131.955 397.573 131.955 396.463 131.955C396.377 131.783 396.292 131.611 396.249 131.482C397.53 130.667 398.769 129.808 400.092 129.036C403.807 126.932 407.565 125.086 411.92 124.528C418.239 123.756 421.485 126.889 423.278 132.341C424.9 137.277 424.388 142.386 424.345 147.451C424.303 150.542 424.345 153.589 424.217 156.68C424.047 160.457 424.986 163.591 428.829 165.308Z" fill="white"/>
<path d="M278.955 131.483C282.371 129.165 285.958 127.147 289.843 125.688C292.533 124.657 295.309 124.357 298.17 124.614C300.731 124.829 302.568 126.16 303.977 128.092C305.813 130.624 306.709 133.5 306.923 136.634C307.094 138.737 307.393 140.883 307.478 142.987C307.521 144.017 307.094 145.09 307.051 146.12C306.966 149.683 307.051 153.289 306.88 156.852C306.709 160.672 307.905 163.677 311.534 165.308C309.485 169.773 303.977 170.545 299.066 164.75C298.212 165.18 297.145 165.523 296.376 166.21C293.003 169.129 289.075 170.159 284.719 169.773C280.62 169.429 275.283 166.51 273.916 161.059C272.593 155.736 272.977 151.1 277.033 147.151C278.4 145.777 280.065 144.876 282.072 144.876C284.506 144.876 287.068 144.403 289.288 145.863C290.825 146.893 292.234 148.052 292.918 150.456C291.338 150.456 289.971 150.499 288.605 150.456C285.958 150.327 283.267 152.559 282.456 155.178C281.645 157.582 282.755 160.329 285.232 162.003C287.623 163.591 291.508 163.205 294.284 160.93C296.889 158.741 298.298 156.122 298.212 152.645C298.084 148.31 298.255 143.931 297.913 139.639C297.614 135.732 294.028 132.427 290.185 132.127C288.306 131.955 286.385 132.041 284.463 131.998C282.712 131.998 280.919 131.998 279.168 131.998C279.04 131.783 278.998 131.611 278.955 131.483Z" fill="white"/>
<path d="M440.657 168.957C440.657 160.801 440.657 153.074 440.657 145.348C440.657 142.901 440.614 140.497 440.7 138.05C440.828 133.929 438.522 129.98 432.715 131.44C431.946 128.65 434.722 124.314 438.095 123.155C439.974 122.511 441.938 122.94 443.176 124.357C444.329 125.688 444.884 127.49 445.61 128.95C446.806 127.576 448.044 125.988 449.453 124.614C451.118 122.983 453.168 122.082 455.516 122.082C459.06 122.039 462.69 121.695 466.02 123.112C469.949 124.786 473.535 127.061 474.475 131.783C474.603 132.341 474.816 132.856 474.987 133.328C474.304 137.149 473.194 140.626 468.753 142.171C468.497 141.227 468.027 140.325 468.027 139.424C468.113 135.818 464.697 132.084 461.665 131.268C457.609 130.195 453.339 131.955 451.289 135.646C450.777 136.591 450.521 137.793 450.478 138.866C450.35 143.717 450.392 148.567 450.222 153.461C450.136 156.251 450.094 159.084 449.496 161.745C448.599 165.652 446.592 168.442 442.792 169.086C442.152 169.172 441.511 169 440.657 168.957Z" fill="white"/>
<path d="M48.6344 179.045C48.5063 180.075 48.6771 181.234 48.2074 182.049C45.1758 187.329 43.8948 193.21 41.8879 198.833C40.0091 204.113 40.5642 209.307 40.5215 214.544C40.5215 215.403 40.9912 216.261 41.2474 217.163C42.8273 222.185 44.4072 227.208 46.0297 232.23C46.7556 234.505 47.4815 236.78 48.4209 238.969C49.7446 242.06 51.1964 245.108 52.8189 248.113C54.1426 250.602 55.6798 252.92 57.1743 255.281C58.0282 256.569 59.053 257.728 59.9497 259.016C60.2913 259.531 60.3767 260.261 60.5475 260.862C58.5406 261.505 57.4304 261.033 55.9787 259.316C53.5875 256.483 51.0683 253.736 48.7625 250.86C45.7735 247.168 43.4678 243.047 42.2722 238.411C42.1868 238.068 42.1868 237.639 42.016 237.381C41.0766 236.093 40.4788 234.805 40.308 233.174C40.2226 232.316 39.326 231.586 38.8136 230.77C36.8921 231.5 36.2089 232.788 35.7819 234.376C35.3122 236.093 34.8425 237.896 32.7503 239.184C32.2806 238.197 31.7682 237.424 31.5547 236.565C31.085 234.419 30.9142 232.23 30.3164 230.127C28.8646 225.19 29.1635 220.168 29.6759 215.274C29.8894 212.913 30.0602 210.466 30.4018 208.105C30.8715 204.543 31.5547 200.937 33.3908 197.76C35.3122 194.326 37.2764 190.892 39.4968 187.673C41.3755 184.968 43.6386 182.564 45.8162 180.118C46.414 179.474 47.3534 179.13 48.1647 178.658C48.2928 178.83 48.4636 178.916 48.6344 179.045Z" fill="white"/>
<path d="M121.31 179.774C120.456 179.216 119.516 178.658 118.62 178.057C118.278 177.842 117.979 177.499 117.637 177.241C115.289 175.353 112.812 174.451 110.08 176.812C110.08 176.64 110.08 176.426 110.037 176.254C108.799 176.383 107.603 176.555 106.365 176.64C105.724 176.683 105.084 176.769 104.443 176.769C101.156 176.769 97.9104 176.769 94.6225 176.769C89.7975 176.812 85.3141 175.439 80.9161 173.593C79.8059 173.121 78.6957 172.691 77.5428 172.391C75.7068 171.919 74.3404 170.931 73.1875 168.828C73.5291 168.485 73.8707 168.055 74.2977 167.798C77.4147 165.737 80.8307 164.278 84.2893 163.033C85.4849 162.604 86.7659 162.26 88.0041 162.26C92.2741 162.26 96.544 162.389 100.771 162.518C101.113 162.518 101.497 162.518 101.839 162.647C103.846 163.376 105.895 164.149 107.902 164.922C110.806 166.038 111.617 167.025 112.343 170.416C112.898 170.717 113.538 171.275 114.264 171.361C117.595 171.79 119.73 174.108 121.822 176.383C122.847 177.37 122.719 178.572 121.31 179.774ZM106.835 174.795C109.183 175.31 109.354 175.224 109.311 173.378C108.5 173.378 107.731 173.378 106.835 173.378C106.835 173.893 106.835 174.28 106.835 174.795Z" fill="white"/>
<path d="M336.812 165.909C336.428 166.21 336.087 166.682 335.617 166.854C333.653 167.626 331.689 168.528 329.682 169.086C325.881 170.159 322.807 167.798 322.252 163.892C321.569 158.869 322.466 153.847 322.209 148.825C322.039 145.047 322.209 141.227 322.167 137.449C322.124 135.046 321.654 132.685 320.202 130.452C318.366 130.066 316.445 129.637 314.523 129.208C315.975 123.155 320.928 121.91 325.881 123.541C330.408 125.001 331.176 128.95 331.262 132.899C331.475 140.283 331.262 147.623 331.347 155.006C331.39 156.981 331.774 158.955 332.116 160.887C332.585 163.334 333.866 165.008 336.556 165.394C336.684 165.566 336.727 165.738 336.812 165.909Z" fill="white"/>
<path d="M39.3283 144.961C39.5845 145.734 39.6699 146.077 39.7553 146.335C40.0115 146.378 40.1396 146.463 40.2677 146.42C42.8297 145.905 45.3489 145.261 47.9536 144.875C52.2662 144.231 56.6215 143.673 60.9342 143.244C65.2895 142.815 69.6448 142.557 74.0001 142.257C75.7508 142.128 77.5442 142.3 79.2948 142.214C80.1061 142.171 80.9174 141.742 81.7287 141.742C82.5827 141.742 83.4794 141.956 84.6749 142.171C82.7108 146.463 79.8926 149.082 76.007 150.885C76.007 151.185 75.9643 151.657 75.9216 152.216C80.9174 151.743 84.5042 148.781 88.7314 145.777C88.5179 146.678 88.5606 147.322 88.3044 147.579C85.0165 150.541 81.7287 153.589 76.7756 153.246C76.2205 153.203 75.58 153.246 75.153 153.503C73.4877 154.448 72.0787 153.589 71.182 152.559C69.2605 150.284 66.5278 149.769 64.0939 148.738C60.3364 147.15 56.2799 147.408 52.3089 147.579C48.893 147.708 46.0748 149.983 44.9646 153.246C44.5376 154.534 43.9399 155.006 41.6341 155.778C40.6093 154.748 39.4564 153.675 38.3462 152.516C35.7843 149.855 34.7595 146.378 33.3077 143.115C32.838 142.042 32.838 140.668 33.9055 139.509C35.1011 138.265 36.5956 138.222 37.8339 138.694C42.4881 140.583 47.3131 141.527 52.3089 141.527C52.3943 141.527 52.4797 141.656 52.8213 141.956C51.1133 142.385 49.6189 142.815 48.0817 143.115C45.2635 143.759 42.4454 144.317 39.3283 144.961Z" fill="white"/>
<path d="M61.9159 162.647C60.0798 165.995 56.8774 167.326 53.6749 168.442C51.7962 169.086 48.7218 166.725 48.6364 164.621C48.5083 161.574 48.3802 158.483 48.6791 155.435C48.978 152.516 50.7714 150.885 54.1019 150.585C57.3471 150.284 60.5068 150.799 63.5385 152.044C64.9475 152.645 66.5274 152.817 67.9792 153.203C70.3703 155.564 70.6265 156.68 69.6445 159.299C69.1748 160.543 68.3635 161.059 67.2106 161.359C66.3139 161.574 65.4172 161.788 64.5632 162.003C63.6666 162.218 62.7699 162.432 61.9159 162.647Z" fill="white"/>
<path d="M13.3245 198.619C13.0683 197.288 13.111 196.043 13.8796 194.67C14.819 192.995 15.2033 190.978 15.8865 189.132C16.3561 187.801 16.7404 186.514 18.2776 185.827C19.0462 185.526 19.6013 184.582 20.1564 183.895C21.1385 182.65 21.907 181.191 23.0599 180.118C25.2803 178.1 26.604 175.095 29.5929 173.979C32.1549 173.035 34.3325 170.889 37.4069 171.361C38.0901 171.447 38.8587 171.017 39.798 170.76C39.9688 170.846 40.2677 171.06 40.5666 171.146C41.8903 171.575 43.0432 172.133 43.0859 173.808C43.1286 175.567 42.2746 176.769 40.9082 177.671C37.2788 180.075 33.5212 182.307 30.0199 184.84C24.9387 188.531 19.7721 192.223 16.3134 197.674C15.6303 198.705 14.7336 199.391 13.3245 198.619Z" fill="white"/>
<path d="M88.0056 136.376C88.091 137.621 88.1764 138.909 88.2618 140.583C87.0235 142.128 85.956 139.682 85.2728 139.81C75.1104 140.497 65.5031 141.141 55.4688 141.828C58.8847 139.81 61.8736 137.793 65.1188 136.247C67.3818 135.174 69.9438 134.788 72.3777 134.101C74.3418 133.543 76.306 132.813 78.3129 132.513C80.5332 132.17 82.839 131.998 85.0593 132.255C86.0841 132.384 86.9808 133.758 87.7921 134.659C88.1337 135.046 88.2191 135.689 88.4326 136.205C88.2618 136.247 88.1337 136.333 88.0056 136.376Z" fill="white"/>
<path d="M64.2199 133.2C63.921 129.165 71.1372 121.18 74.6813 121.567C74.8521 122.769 74.9802 124.056 75.151 125.387C76.8589 126.417 78.0545 125.001 79.2074 124.357C80.6165 123.541 81.9401 123.069 83.5627 122.983C86.7225 122.769 89.8395 122.254 92.9992 122.296C95.2623 122.296 97.5681 122.94 100.13 123.327C100.301 123.799 100.514 124.486 100.685 125.13C99.3614 126.503 98.0378 126.761 96.3298 126.675C92.6577 126.46 88.9428 126.46 85.2707 126.632C83.8189 126.675 82.4525 127.405 81.0008 127.791C77.7556 128.65 74.4678 129.422 71.2653 130.41C69.8135 130.839 68.5753 131.869 67.1662 132.47C66.2268 132.813 65.2447 132.942 64.2199 133.2Z" fill="white"/>
<path d="M39.2852 128.177C41.4201 124.915 55.2974 123.713 61.2326 126.889C61.8304 130.538 58.4571 134.702 54.8704 134.702C52.1803 134.702 49.4903 134.788 46.8002 134.659C45.69 134.616 44.5799 134.101 43.1708 133.714C43.7259 132.513 44.0675 131.697 44.4518 130.881C44.0675 129.679 43.1281 129.422 41.9752 129.293C41.1212 129.164 40.2672 128.606 39.2852 128.177Z" fill="white"/>
<path d="M321.911 105.684C324.857 105.899 327.376 106.757 329.041 109.505C330.365 111.694 329.81 114.656 327.718 116.029C323.918 118.605 319.861 117.188 317.171 114.613C315.591 113.11 315.378 110.921 316.189 109.032C317.086 106.972 319.135 106.07 321.313 105.684C321.484 105.641 321.697 105.684 321.911 105.684Z" fill="white"/>
<path d="M20.4531 130.624C21.179 128.907 22.46 129.551 23.5702 129.722C24.4669 129.851 25.3208 130.109 26.2175 130.238C27.8401 130.538 29.4627 130.924 31.1279 131.096C33.0921 131.311 35.0563 131.311 37.2339 131.397C38.2587 133.543 40.9061 134.616 41.5039 137.192C41.3758 137.363 41.2904 137.535 41.1623 137.75C40.351 137.535 39.497 137.406 38.7284 137.063C36.6788 136.161 34.672 135.131 32.6224 134.273C32.0246 134.015 31.2133 134.144 30.5728 134.315C26.2602 135.346 23.1859 134.273 20.4531 130.624Z" fill="white"/>
</g>
<defs>
<clipPath id="clip0_5364_161670">
<rect width="510" height="267" fill="white"/>
</clipPath>
</defs>
</svg>
