<svg width="200" height="200" viewBox="0 0 200 200" fill="none" xmlns="http://www.w3.org/2000/svg">
<g clip-path="url(#clip0_5364_152314)">
<path d="M167.895 128.03C167.895 136.383 167.869 144.737 167.869 153.091C167.869 157.512 167.869 161.907 167.869 166.328C167.869 166.791 167.869 167.253 167.869 167.87C166.018 167.896 164.296 167.896 162.548 167.896C160.825 167.896 159.129 167.896 157.406 167.896C155.658 167.896 153.91 167.896 152.034 167.896C151.828 169.258 151.956 170.518 151.931 171.777C151.905 173.063 151.931 174.348 151.931 175.787C149.309 175.967 146.712 175.761 143.962 175.916C143.884 178.615 143.936 181.262 143.91 183.858C144.913 184.141 157.92 184.244 159.926 183.987C159.951 183.19 159.951 182.342 159.977 181.493C159.977 180.594 159.977 179.694 159.977 178.794C159.977 177.946 159.977 177.098 159.977 176.096C164.09 176.096 168.049 176.096 172.008 176.096C175.941 176.096 179.874 176.096 183.936 176.096C184.27 173.448 183.962 170.878 184.116 168.359C185.041 168.076 197.92 167.973 199.746 168.23C199.977 169.156 200.054 197.867 199.823 199.769C198.897 200 193.73 200.051 192.034 199.82C192.034 197.275 192.008 194.679 192.008 192.057C191.545 192.006 191.262 191.955 190.98 191.955C186.095 191.955 181.211 191.955 176.327 191.955C176.147 191.955 175.992 191.98 175.812 192.006L175.864 192.057C175.864 189.41 175.864 186.788 175.864 184.064C173.139 184.064 170.568 184.064 167.869 184.064C167.869 186.788 167.869 189.41 167.869 192.057L167.895 192.006C165.915 191.98 163.962 191.955 161.982 191.955C159.154 191.955 156.327 191.955 153.499 191.955C153.036 191.955 152.573 191.955 151.956 191.955C151.828 193.343 151.905 194.654 151.905 195.964C151.879 197.25 151.905 198.509 151.905 199.871C149.257 199.871 146.712 199.871 144.013 199.871C144.013 197.275 144.013 194.705 144.013 191.98C141.288 191.98 138.743 191.98 136.095 191.98C135.915 189.307 136.121 186.763 135.967 184.166C135.093 183.832 134.244 184.038 133.396 183.987C132.496 183.961 131.597 183.987 130.697 183.987C129.848 183.987 129 183.987 128.1 183.987C128.1 181.313 128.1 178.82 128.1 176.173C129.386 176.018 130.671 176.121 131.931 176.096C133.216 176.07 134.476 176.096 135.71 176.096C136.095 175.042 136.147 169.31 135.787 167.922C134.27 167.845 132.702 167.896 131.134 167.896C129.54 167.896 127.972 167.896 126.378 167.896C124.784 167.896 123.216 167.896 121.622 167.896C120.028 167.896 118.46 167.896 116.866 167.896C115.298 167.896 113.705 167.896 111.982 167.896C111.956 165.171 111.905 162.524 111.879 159.902L111.828 159.954C114.501 159.954 117.201 159.954 119.977 159.954C120.131 158.617 120.003 157.332 120.054 156.072C120.106 154.762 119.9 153.451 120.183 152.063C121.519 152.063 122.805 152.088 124.09 152.063C125.35 152.037 126.635 152.217 127.869 151.934C128.1 150.546 128.075 137.103 127.843 136.126C127.741 136.101 127.612 136.024 127.483 136.024C122.573 136.024 117.638 135.998 112.728 135.998C112.522 135.998 112.316 136.049 112.085 136.075C112.059 136.075 112.008 136.126 111.982 136.152C111.956 136.178 111.931 136.203 111.776 136.383C111.776 138.8 111.776 141.344 111.776 143.992C110.594 143.992 109.514 143.992 108.46 143.992C107.432 143.992 106.404 143.992 105.375 143.992C104.296 143.992 103.242 143.992 102.162 143.992C101.134 143.992 100.106 143.966 99.0773 143.992C98.0233 144.017 96.9693 143.915 95.941 144.069C95.684 146.459 95.7868 159.054 96.0696 159.979C98.666 159.979 101.262 159.979 103.884 159.979L103.833 159.928C103.833 165.197 103.833 170.441 103.833 175.864C101.16 175.916 98.5631 175.864 95.8896 175.916C95.8896 183.987 95.8896 191.878 95.8896 199.769C94.9128 200.051 90.6711 200.154 87.9976 199.923C87.9462 198.638 87.9719 197.327 87.9719 196.016C87.9719 194.731 87.9719 193.471 87.9719 192.057C85.2212 191.955 82.5734 191.955 79.9513 192.057L80.0027 192.109C80.0027 189.436 80.0027 186.763 80.0027 184.115L79.977 184.141C82.5734 184.141 85.1955 184.141 87.7662 184.141C88.049 183.138 88.1261 178.075 87.8948 175.967C85.3498 175.787 82.7534 175.993 80.0541 175.838C80.0541 170.569 80.0541 165.377 80.0541 160.211C79.0516 159.877 74.1415 159.799 71.8536 160.031C71.8279 160.442 71.7765 160.905 71.7765 161.342C71.7765 165.66 71.7765 170.004 71.7765 174.322C71.7765 174.785 71.7765 175.247 71.7765 175.787C69.1801 175.787 66.7379 175.787 64.1158 175.787C63.9873 172.523 64.0644 169.233 64.0644 165.968C64.0387 162.627 64.0644 159.285 64.0644 155.944C64.0644 152.654 64.0644 149.338 64.0644 146.048C64.0644 142.758 64.0644 139.494 64.0644 136.126C66.6865 136.126 69.1544 136.126 71.7765 136.126C71.8279 141.396 71.7765 146.639 71.8022 151.96C74.6043 151.96 77.2264 151.96 79.9513 151.96C79.9513 146.639 79.9513 141.396 79.9513 136.075C78.6146 135.792 77.3035 135.998 75.9924 135.946C74.7328 135.921 73.4475 135.946 72.0336 135.946C72.0336 133.248 72.0336 130.703 72.0336 127.978C69.2572 127.953 66.6094 127.978 63.9616 127.978C61.3652 127.978 58.7431 127.978 55.9924 127.978C55.941 125.279 55.9153 122.683 55.8639 120.087L55.8125 120.139C65.9667 120.139 76.1467 120.139 86.3009 120.113C86.8151 120.113 87.3035 120.113 87.9719 120.113C88.0233 117.363 87.9976 114.741 87.9719 112.119L87.9205 112.171C95.8639 112.171 103.833 112.145 111.905 112.145C111.905 109.42 111.905 106.876 111.905 104.177C117.278 104.125 122.522 104.202 127.895 104.151C127.946 103.534 128.023 103.046 128.023 102.557C128.023 98.2392 128.023 93.8953 128.023 89.5771C128.023 89.1144 128.023 88.6518 128.023 88.1377C130.645 88.1377 133.113 88.1377 135.735 88.1377C135.812 93.4069 135.71 98.6505 135.787 104.023C138.486 104.357 141.134 103.997 143.884 104.254C143.884 106.85 143.884 109.42 143.884 112.093C146.584 112.299 149.18 112.068 151.905 112.248C151.905 114.869 151.905 117.414 151.905 120.139C154.681 120.139 157.303 120.164 159.951 120.164L159.9 120.113C159.9 121.45 159.874 122.76 159.874 124.097C159.874 125.408 159.823 126.719 159.926 128.133C162.702 128.133 165.298 128.133 167.92 128.133L167.895 128.03ZM95.9153 128.03C106.352 128.03 116.815 128.055 127.252 128.055C127.483 128.055 127.715 127.953 128.023 127.876C128.075 125.279 127.998 122.735 128.075 120.164C130.723 120.164 133.165 120.164 135.787 120.164C135.787 121.501 135.761 122.786 135.787 124.046C135.812 125.357 135.684 126.667 135.89 127.953C137.895 128.184 143.036 128.107 143.91 127.85C144.142 126.205 144.064 120.987 143.756 119.959C141.237 119.959 138.692 119.959 135.992 119.959C135.992 117.286 135.992 114.741 135.992 112.042C133.216 111.991 130.594 112.016 127.818 112.016C127.818 114.715 127.818 117.286 127.818 119.984C117.124 119.984 106.584 119.984 95.9153 119.984C95.8382 122.786 95.8125 125.408 95.9153 128.055C93.3446 128.03 90.7996 128.03 88.229 128.004C88.1518 128.004 88.1004 128.081 87.9462 128.158C87.9462 130.703 87.9462 133.273 87.9462 135.844C89.2572 136.126 94.9127 136.075 95.8639 135.792C95.9153 133.248 95.9153 130.626 95.9153 128.03ZM135.967 159.825C137.201 160.082 158.923 160.056 159.926 159.774C159.951 159.542 159.977 159.285 159.977 159.054C159.951 151.446 159.926 143.812 159.9 136.204C159.9 136.178 159.848 136.126 159.823 136.101C159.797 136.075 159.771 136.049 159.771 136.049C151.802 136.049 143.859 136.049 135.941 136.049C135.684 137.463 135.735 158.874 135.967 159.825Z" fill="#00FF5D"/>
<path d="M55.8365 120.062C53.2401 120.062 50.6437 120.062 48.0473 120.062C47.7902 121.013 47.7388 126.462 47.9959 127.978C49.2298 128.132 50.4894 128.03 51.7748 128.03C53.0601 128.055 54.3455 128.03 55.5794 128.03C55.8879 128.955 55.9907 133.247 55.7594 135.715C55.7336 135.741 55.7079 135.766 55.6565 135.818C55.6308 135.844 55.5794 135.895 55.5537 135.895C47.7645 135.921 39.9753 135.921 32.1861 135.946C29.4869 135.946 26.8133 135.946 23.9856 135.946C23.9856 133.273 23.9856 130.729 23.9856 128.004C23.0344 127.978 22.1861 127.953 21.3635 127.953C20.4637 127.953 19.564 127.953 18.6642 127.953C17.8159 127.953 16.9676 127.953 15.9907 127.953C15.965 125.228 15.9393 122.658 15.9393 120.062C17.2761 120.062 18.5871 120.087 19.9239 120.087C21.2349 120.087 22.546 120.139 23.9856 120.036C23.9856 114.689 23.9856 109.472 23.9856 104.125C25.8622 104.125 27.5846 104.125 29.3326 104.125C31.0807 104.125 32.8545 104.125 34.6025 104.125C36.3506 104.125 38.073 104.177 39.7953 104.074C40.0267 102.352 39.9753 96.9282 39.7182 96.0029C39.6154 95.9772 39.4869 95.9001 39.3583 95.9001C29.0756 95.9001 18.7928 95.9001 8.53571 95.9001C8.35576 95.9001 8.20152 95.9515 8.02157 95.9772C7.99586 95.9772 7.94445 96.0286 7.91874 96.0543C7.89304 96.08 7.86733 96.1057 7.84162 96.1571C7.58455 98.3162 7.68738 103.2 8.07298 104.151C9.30692 104.151 10.5666 104.125 11.8519 104.151C13.163 104.177 14.474 103.997 15.8879 104.279C15.8879 104.794 15.8879 105.282 15.8879 105.745C15.8879 110.037 15.8879 114.304 15.8879 118.596C15.8879 119.11 15.9393 119.625 15.9907 120.139C13.3172 119.907 10.618 120.113 7.7645 120.036C7.73879 122.786 7.73879 125.382 7.73879 127.978C7.73879 130.6 7.73879 133.196 7.73879 135.792C6.76193 136.075 1.67196 136.126 0.078125 135.869C0.078125 120.01 0.078125 104.151 0.078125 88.1119C0.566557 88.0862 1.0807 88.0605 1.56913 88.0605C16.4792 88.0605 31.3892 88.0605 46.2992 88.0605C46.8133 88.0605 47.3275 88.0091 47.8416 88.0091L47.8159 87.9062C47.8416 90.5537 47.8416 93.1755 47.8673 95.9515C53.2144 95.9515 58.4072 95.9515 63.5743 95.9515C63.857 97.0053 63.9085 102.275 63.6514 103.868C61.9547 103.92 60.2067 103.894 58.4586 103.894C56.7362 103.894 55.0396 103.894 53.3172 103.894C51.5691 103.894 49.8211 103.894 48.0987 103.894C47.7645 104.845 47.6874 110.551 47.9959 112.093C50.5151 112.093 53.0601 112.093 55.7079 112.093C55.8879 113.533 55.7851 114.844 55.7851 116.155C55.8108 117.491 55.7594 118.802 55.7594 120.139C55.7851 120.113 55.8365 120.062 55.8365 120.062ZM39.8725 120.139C38.1244 119.907 32.8802 119.959 31.9804 120.216C31.7491 121.809 31.8262 127.053 32.0576 127.953C33.6257 128.184 38.8956 128.107 39.8468 127.85C39.8725 125.305 39.8725 122.76 39.8725 120.139Z" fill="#00FF5D"/>
<path d="M199.822 55.9312C181.236 55.9312 162.702 55.9312 144.09 55.9312C144.09 37.3474 144.09 18.8151 144.09 0.282778C144.116 0.257074 144.141 0.23137 144.167 0.205667C144.193 0.179963 144.218 0.128556 144.27 0.128556C144.578 0.102852 144.861 0.0771484 145.17 0.0771484C163.37 0.0771484 181.571 0.0771484 199.694 0.0771484C199.797 0.179963 199.822 0.205667 199.848 0.257074C199.874 0.282778 199.925 0.334185 199.925 0.359888C199.951 0.565518 199.977 0.79685 199.977 1.00248C199.977 19.1492 199.951 37.3217 199.951 55.4685C199.951 55.5456 199.874 55.6741 199.822 55.9312ZM191.879 8.12239C190.619 7.86535 152.984 7.91676 152.033 8.17379C151.776 9.99875 151.879 47.1405 152.136 48.0658C165.375 48.0658 178.64 48.0658 191.853 48.0658C192.136 46.8835 192.136 9.17624 191.879 8.12239Z" fill="#00FF5D"/>
<path d="M55.7867 144.197C55.7867 162.781 55.7867 181.262 55.7867 199.742C55.7353 199.794 55.6839 199.82 55.6582 199.845C55.6325 199.871 55.5811 199.922 55.5553 199.922C55.3754 199.948 55.2212 199.974 55.0412 199.974C36.8664 199.974 18.7173 199.974 0.542487 199.974C0.413952 199.974 0.311124 199.922 0.105469 199.871C0.105469 181.339 0.105469 162.806 0.105469 144.274C0.131176 144.248 0.156883 144.223 0.18259 144.197C0.208297 144.171 0.25971 144.12 0.285417 144.12C0.465366 144.094 0.619608 144.068 0.799556 144.068C18.9744 144.068 37.1235 144.068 55.2983 144.068C55.4268 144.068 55.5553 144.12 55.7867 144.197ZM7.94609 191.903C9.1286 192.134 46.7893 192.108 47.8176 191.877C47.8433 191.774 47.9204 191.646 47.9204 191.543C47.9204 178.743 47.9461 165.942 47.9461 153.142C47.9461 152.833 47.8947 152.551 47.869 152.242C47.869 152.216 47.8433 152.165 47.8176 152.139C47.7918 152.114 47.7661 152.088 47.689 152.036C47.6119 152.011 47.4834 151.959 47.3548 151.959C34.4242 151.959 21.4936 151.959 8.56305 151.959C8.3831 151.959 8.22886 152.011 8.04891 152.036C8.02321 152.036 7.97179 152.088 7.94609 152.114C7.92038 152.139 7.89467 152.165 7.86897 152.216C7.66331 153.733 7.71472 190.977 7.94609 191.903Z" fill="#00FF5D"/>
<path d="M55.8363 55.9305C37.173 55.9305 18.6897 55.9305 0.232143 55.9305C-0.0249263 54.9281 -0.0763402 1.64444 0.180729 0.12793C18.6383 0.12793 37.1216 0.12793 55.6306 0.12793C55.6563 0.153633 55.682 0.179337 55.7077 0.205041C55.7334 0.230744 55.7848 0.256448 55.7848 0.307855C55.8105 0.744817 55.862 1.15608 55.862 1.59304C55.8363 19.6627 55.8363 37.7067 55.8363 55.9305ZM7.76428 47.9367C9.12674 48.2194 46.8131 48.1937 47.79 47.9367C47.9442 47.0371 48.0213 8.63583 47.8414 8.04465C34.5509 8.04465 21.2604 8.04465 7.78998 8.04465C7.73857 21.3848 7.76428 34.6736 7.76428 47.9367Z" fill="#00FF5D"/>
<path d="M136.093 64.1306C138.689 64.1306 141.183 64.1306 143.882 64.1306C143.959 65.4158 143.908 66.7267 143.908 68.0376C143.908 69.3741 143.908 70.685 143.908 72.0216C143.908 73.3068 143.908 74.592 143.908 75.8772C143.908 77.1881 143.908 78.5246 143.908 79.7841C144.987 80.0411 150.334 80.0926 151.954 79.8612C152.031 77.3423 151.954 74.7976 152.005 72.0987C154.602 71.8931 157.198 72.1501 159.897 71.9702C159.897 69.3484 159.897 66.8038 159.897 64.2848C160.9 63.9764 165.579 63.8993 167.789 64.1306C167.918 66.701 167.764 69.2713 167.867 71.9445C170.566 71.9445 173.136 71.9445 175.836 71.9445C175.836 69.3227 175.836 66.7781 175.836 64.2591C176.864 63.9764 198.355 63.925 199.846 64.182C199.846 66.7267 199.846 69.2713 199.846 71.9188C197.198 71.9188 194.602 71.9188 191.825 71.9188C191.697 74.6177 191.851 77.188 191.723 79.8869C186.401 79.8869 181.208 79.8869 176.016 79.8869C175.733 80.9408 175.707 86.3642 175.913 87.7779C176.787 88.035 190.077 88.1121 191.928 87.8551C192.057 85.3104 191.928 82.7143 192.005 80.0669C194.653 80.0669 197.198 80.0669 199.795 80.0669C199.795 87.9836 199.795 95.8489 199.795 103.791C197.224 103.791 194.705 103.791 192.031 103.791C192.005 102.943 191.98 102.121 191.98 101.272C191.98 100.373 191.98 99.4731 191.98 98.5735C191.98 97.7253 191.98 96.877 191.98 95.8746C189.82 95.8746 187.841 95.8746 185.836 95.8746C183.856 95.8746 181.903 95.8746 179.923 95.8746C177.918 95.8746 175.887 95.8746 173.882 95.8746C171.928 95.8746 169.975 95.8746 167.867 95.8746C167.867 93.2014 167.867 90.6311 167.867 87.9322C164.242 87.8808 160.746 87.9065 157.25 87.9065C153.702 87.9065 150.129 87.9065 146.581 87.9065C143.085 87.9065 139.589 87.9065 136.016 87.9065C136.093 79.9126 136.093 72.073 136.093 64.1306Z" fill="#00FF5D"/>
<path d="M80.0004 79.9379C74.7562 79.9379 69.4863 79.9379 64.1392 79.9379C63.9336 78.5499 64.0621 77.2134 64.0364 75.9282C64.0107 74.6687 64.0364 73.3835 64.0364 72.0469C58.5865 72.0469 53.2909 72.0469 47.8411 72.0469C47.8411 74.7201 47.8153 77.3676 47.8153 79.9894L47.8668 79.9379C45.2704 79.9379 42.674 79.9379 39.949 79.9379C39.949 77.2391 39.949 74.6944 39.949 71.9698C37.1984 71.9441 34.5506 71.9441 31.9027 71.9441C29.2549 71.9441 26.5814 71.9441 23.9336 71.9698L23.985 72.0212C23.985 69.4252 23.985 66.8291 23.985 64.0788C40.0004 64.0788 55.913 64.0788 71.9284 64.0788C72.1598 61.4056 71.9027 58.861 72.0827 56.1364C73.3937 56.0336 74.7048 56.1107 76.0159 56.085C77.3012 56.0593 78.5608 56.085 79.8976 56.085C80.1804 54.697 80.0004 53.4375 80.0261 52.178C80.0518 50.8928 80.0261 49.6076 80.0261 48.1682C81.3886 48.0654 82.6997 48.1425 84.0107 48.1168C85.3475 48.1168 86.6585 48.1168 87.9953 48.1168L87.9439 48.0654C87.9439 56.0336 87.9439 64.0274 87.9439 71.9955L87.9696 71.9698C86.6585 71.9698 85.3218 71.9441 84.0107 71.9441C82.6739 71.9698 81.3115 71.8413 79.9747 72.0212C79.9747 74.7715 79.9747 77.3676 79.9747 79.9636L80.0004 79.9379Z" fill="#00FF5D"/>
<path d="M159.951 120.113C159.951 114.844 159.951 109.6 159.951 104.357C160.98 104.074 166.198 104.023 167.818 104.254C167.818 106.773 167.818 109.343 167.818 111.837C168.795 112.171 182.419 112.248 184.065 111.939C184.142 109.421 184.065 106.876 184.116 104.357C185.093 104.048 190.337 104.023 191.802 104.305C191.802 106.824 191.802 109.369 191.802 112.017C193.242 112.197 194.553 112.094 195.864 112.119C197.175 112.145 198.486 112.119 199.874 112.119C199.874 117.414 199.874 122.581 199.874 127.876C197.278 128.03 194.759 127.953 192.059 127.927C192.059 125.28 192.059 122.735 192.059 120.036C189.283 119.908 186.661 120.01 183.885 119.985C183.808 122.709 183.808 125.305 183.885 128.03C186.532 128.03 189.077 128.03 191.597 128.03C191.854 129.135 191.905 142.347 191.7 143.761C190.774 143.966 177.869 144.043 175.941 143.838C175.864 138.62 175.967 133.376 175.89 127.979C173.139 127.927 170.517 127.876 167.869 128.004L167.921 128.03C167.921 126.719 167.946 125.382 167.946 124.072C167.921 122.735 168.049 121.373 167.869 120.036C165.119 120.036 162.522 120.036 159.926 120.036L159.951 120.113Z" fill="#00FF5D"/>
<path d="M111.852 64.0791C117.096 64.0791 122.366 64.0791 127.584 64.0791C127.867 65.0815 127.918 86.4413 127.661 87.855C125.219 87.855 122.751 87.855 120.155 87.855C120.001 85.2589 120.181 82.6628 120.052 80.0154C117.301 80.0154 114.679 80.0154 111.877 80.0154C111.877 82.6885 111.852 85.336 111.852 87.9578L111.877 87.9321C109.281 87.9321 106.659 87.9321 103.908 87.9321C103.78 89.3458 103.857 90.6567 103.857 91.9675C103.831 93.3041 103.857 94.615 103.857 95.9516C103.857 97.2368 103.857 98.522 103.857 99.8072C103.857 101.118 103.857 102.429 103.857 103.843C98.5353 103.843 93.3425 103.843 88.0726 103.843C88.0726 101.247 88.0726 98.7533 88.0726 96.0801C90.6433 95.9259 93.214 96.1058 95.8875 95.9773C95.8875 93.3041 95.8875 90.7081 95.8875 88.0092C90.6176 88.0092 85.4248 88.0092 80.052 88.0092C79.9749 86.5955 80.0263 85.2846 80.0006 83.9737C80.0006 82.6371 80.0006 81.3262 80.0006 79.9897L79.9492 80.0411C82.5713 80.0411 85.1934 80.0411 87.9441 80.0411C87.9441 77.2908 87.9441 74.669 87.9441 72.0472L87.9184 72.0729C90.5919 72.0729 93.2654 72.0472 95.9132 72.0472C95.8104 74.669 95.8361 77.3165 95.8875 79.9125C97.5071 80.1953 102.957 80.1439 103.857 79.8354C103.882 79.5527 103.908 79.2443 103.908 78.9615C103.882 76.6482 103.882 74.3606 103.857 72.0472C106.787 72.2529 110.977 72.1757 111.929 71.8416C111.929 71.5332 111.929 71.199 111.929 70.8649C111.903 68.6029 111.877 66.341 111.877 64.0791H111.852Z" fill="#00FF5D"/>
<path d="M64.2682 0.12793C69.4353 0.12793 74.6023 0.12793 79.8466 0.12793C79.8466 5.39718 79.8466 10.5893 79.8466 15.91C77.1987 15.91 74.6281 15.91 71.8774 15.91C71.6975 18.6088 71.826 21.1792 71.7489 23.8524C69.1782 23.8524 66.7103 23.8524 64.2682 23.8524C64.2424 23.8267 64.191 23.801 64.1653 23.7496C64.1396 23.7239 64.1139 23.6725 64.1139 23.6468C64.0882 16.1156 64.0625 8.58443 64.0625 1.05326C64.0625 0.847632 64.0882 0.616299 64.1139 0.41067C64.1139 0.333559 64.191 0.256448 64.2167 0.205041C64.2167 0.153633 64.2682 0.153633 64.2682 0.12793Z" fill="#00FF5D"/>
<path d="M103.703 15.8844C98.5102 15.8844 93.3174 15.8844 88.0732 15.8844C88.0475 15.6531 87.9961 15.4989 87.9961 15.3446C87.9961 12.9799 87.9961 10.6409 87.9961 8.12191C88.8701 8.09621 89.7185 8.0705 90.5411 8.0705C91.4408 8.0705 92.3406 8.0705 93.2403 8.0705C94.0886 8.0705 94.937 8.0705 95.8881 8.0705C95.8881 5.39732 95.8881 2.85266 95.8881 0.333707C96.865 -0.000440785 100.978 -0.0775517 103.626 0.128077C103.934 0.976297 103.986 14.2908 103.703 15.8844Z" fill="#00FF5D"/>
<path d="M184.168 159.748C184.168 157.177 184.168 154.658 184.168 152.011C186.79 152.011 189.335 152.011 192.034 152.011C192.034 149.312 192.034 146.767 192.034 144.146C194.682 144.146 197.201 144.146 199.849 144.146C200.081 146.742 199.926 149.312 199.952 151.908C199.978 154.504 199.952 157.126 199.952 159.696C198.898 159.928 185.685 159.979 184.168 159.748Z" fill="#00FF5D"/>
<path d="M128.151 16.1162C130.696 16.1162 133.138 16.1162 135.708 16.1162C135.708 24.0072 135.708 31.8725 135.708 39.6864C134.757 39.9435 130.104 39.9949 128.279 39.815C127.996 38.9153 127.868 18.8665 128.151 16.1162Z" fill="#00FF5D"/>
<path d="M47.8164 79.9896C53.0863 79.9896 58.3305 79.9896 63.5748 79.9896C63.8575 81.0177 63.909 86.1584 63.6776 87.9063C61.0555 87.932 58.4334 87.9063 55.7856 87.9063C53.1377 87.9063 50.4642 87.9063 47.8164 87.9063L47.8678 87.9577C47.8678 85.2845 47.8678 82.6113 47.8678 79.9639L47.8164 79.9896Z" fill="#00FF5D"/>
<path d="M23.9341 71.9697C23.9341 74.5658 23.9341 77.1619 23.9341 79.8607C18.6127 79.8607 13.3942 79.8607 8.20143 79.8607C7.94436 78.9611 7.89295 73.8975 8.12431 72.0725C13.3942 72.0468 18.6899 72.0468 23.9855 72.0211L23.9341 71.9697Z" fill="#00FF5D"/>
<path d="M87.9702 39.8403C85.3738 39.8403 82.7774 39.8403 80.0781 39.8403C80.0781 34.5454 80.0781 29.3532 80.0781 24.084C82.6745 24.084 85.2195 24.084 87.9187 24.084C87.9187 29.3789 87.9187 34.6225 87.9187 39.866L87.9702 39.8403Z" fill="#00FF5D"/>
<path d="M79.9745 192.031C79.9488 194.165 79.923 196.298 79.8973 198.431C79.8973 198.894 79.8973 199.357 79.8973 199.897C74.576 199.897 69.4089 199.897 64.1133 199.897C64.1133 197.326 64.1133 194.782 64.1133 192.083C69.4346 192.083 74.7303 192.083 80.0002 192.083C80.0259 192.057 79.9745 192.031 79.9745 192.031Z" fill="#00FF5D"/>
<path d="M119.746 183.935C114.502 183.935 109.335 183.935 104.168 183.935C103.911 183.036 103.834 178.306 104.04 176.301C104.939 176.044 117.407 175.941 119.618 176.173C119.901 177.047 119.978 181.853 119.746 183.935Z" fill="#00FF5D"/>
<path d="M159.822 96.0547C159.822 98.6765 159.822 101.195 159.822 103.817C154.553 103.817 149.36 103.817 144.09 103.817C144.09 101.195 144.09 98.6508 144.09 96.0547C149.36 96.0547 154.578 96.0547 159.822 96.0547Z" fill="#00FF5D"/>
<path d="M111.878 31.8977C109.282 31.8977 106.685 31.8977 104.012 31.8977C104.012 26.6027 104.012 21.4363 104.012 16.1414C106.608 15.9871 109.153 16.0642 111.852 16.09C111.852 21.4363 111.852 26.7056 111.852 31.9491L111.878 31.8977Z" fill="#00FF5D"/>
<path d="M128.202 48.1943C130.644 48.1943 133.112 48.1943 135.579 48.1943C135.837 49.1711 135.862 62.537 135.631 63.8736C133.189 63.8736 130.721 63.8736 128.253 63.8736C127.996 62.8711 127.97 49.5566 128.202 48.1943Z" fill="#00FF5D"/>
<path d="M111.879 48.0917C109.231 48.0917 106.558 48.0917 103.91 48.0917L103.962 48.1431C103.962 45.4699 103.962 42.771 103.962 40.0207C106.712 39.9693 109.283 39.9436 111.879 39.8922L111.828 39.8408C111.828 42.5911 111.828 45.3671 111.828 48.1174L111.879 48.0917Z" fill="#00FF5D"/>
<path d="M87.9453 39.8923C90.079 39.918 92.2127 39.9437 94.372 39.9694C94.8348 39.9694 95.2975 39.9694 95.9145 39.9694C95.9145 42.7711 95.9145 45.47 95.9145 48.1431L95.9659 48.0917C93.2924 48.0917 90.6188 48.0917 87.971 48.0917L88.0224 48.1431C88.0224 45.3929 88.0224 42.6169 88.0224 39.8666C87.971 39.8409 87.9453 39.8923 87.9453 39.8923Z" fill="#00FF5D"/>
<path d="M111.828 87.9577C113.962 87.9834 116.095 88.0091 118.229 88.0091C118.692 88.0091 119.155 88.0091 119.592 88.0091C119.874 88.9601 119.952 93.9466 119.72 95.8487C117.201 95.9001 114.682 95.8744 111.982 95.8744C111.931 93.1498 111.905 90.528 111.88 87.9062L111.828 87.9577Z" fill="#00FF5D"/>
<path d="M87.9696 112.094C85.8359 112.068 83.7022 112.042 81.5686 112.017C81.1058 112.017 80.6431 112.017 80.2061 112.017C79.949 110.963 79.9233 105.719 80.1547 104.126C82.674 104.1 85.1932 104.126 87.8925 104.126C87.9182 106.85 87.9182 109.498 87.9439 112.12L87.9696 112.094Z" fill="#00FF5D"/>
<path d="M103.883 56.1107C106.479 56.1107 109.076 56.1107 111.852 56.1107C111.878 58.8353 111.852 61.457 111.852 64.0788L111.903 64.0274C110.592 64.0017 109.281 63.976 107.97 63.976C106.608 63.976 105.271 64.0274 103.909 64.0788C103.909 61.4056 103.934 58.7324 103.934 56.085L103.883 56.1107Z" fill="#00FF5D"/>
<path d="M95.8867 48.1168C98.5602 48.1168 101.234 48.1168 103.933 48.1168L103.882 48.0654C103.882 50.7386 103.882 53.4118 103.856 56.085L103.907 56.0336C101.285 56.0079 98.6374 55.9564 95.9381 55.9307C95.9381 53.2062 95.9381 50.6358 95.9381 48.0654L95.8867 48.1168Z" fill="#00FF5D"/>
<path d="M111.88 159.902C109.206 159.902 106.533 159.902 103.859 159.902L103.911 159.954C103.911 157.358 103.911 154.762 103.911 152.114C106.61 152.114 109.155 152.114 111.854 152.114C111.854 154.762 111.854 157.358 111.854 159.954C111.854 159.928 111.88 159.902 111.88 159.902Z" fill="#00FF5D"/>
<path d="M111.854 31.9235C113.988 31.9492 116.121 31.9749 118.255 31.9749C118.718 31.9749 119.18 31.9749 119.617 31.9749C119.9 32.9773 119.952 38.1952 119.694 39.8402C117.098 39.8916 114.45 39.8916 111.828 39.8145L111.88 39.8659C111.88 37.1927 111.88 34.5452 111.905 31.8721C111.88 31.8978 111.854 31.9235 111.854 31.9235Z" fill="#00FF5D"/>
<path d="M175.861 192.006C175.861 194.602 175.861 197.198 175.861 199.871C173.214 199.871 170.694 199.871 167.995 199.871C167.969 197.249 167.969 194.628 167.944 192.006L167.918 192.057C170.591 192.057 173.265 192.057 175.913 192.057L175.861 192.006Z" fill="#00FF5D"/>
<path d="M80.0282 184.064C77.8945 184.038 75.7608 184.012 73.6271 183.986C73.1644 183.986 72.7017 183.986 72.2647 183.986C71.9819 183.01 71.9048 177.895 72.1361 176.301C73.0359 176.044 78.1516 175.993 79.8739 176.224C79.8996 178.846 79.9511 181.467 79.9768 184.089L80.0282 184.064Z" fill="#00FF5D"/>
<path d="M111.828 48.1423C114.425 48.1423 117.021 48.1423 119.592 48.1423C119.874 49.0933 119.952 54.1312 119.694 55.9819C117.175 56.0333 114.656 56.0076 111.982 56.0076C111.931 53.283 111.905 50.6869 111.854 48.1166C111.88 48.0909 111.828 48.1423 111.828 48.1423Z" fill="#00FF5D"/>
<path d="M112.16 7.89109C112.16 5.32072 112.16 2.80177 112.16 0.282811C113.034 7.1344e-05 117.97 -0.0770396 119.667 0.179997C119.898 1.10533 119.949 6.34887 119.718 7.89109C117.224 7.89109 114.731 7.89109 112.16 7.89109Z" fill="#00FF5D"/>
<path d="M128.098 7.89051C128.098 5.29444 128.098 2.77549 128.098 0.256529C129.049 -0.000507534 134.242 -0.0519148 135.707 0.205122C135.707 2.72408 135.707 5.26874 135.707 7.89051C133.188 7.89051 130.72 7.89051 128.098 7.89051Z" fill="#00FF5D"/>
<path d="M0.130054 64.1299C2.67504 64.1299 5.1172 64.1299 7.66219 64.1299C7.66219 66.726 7.66219 69.2706 7.66219 71.8924C5.14291 71.8924 2.67504 71.8924 0.232882 71.8924C-0.0241877 70.9928 -0.101309 66.0834 0.130054 64.1299Z" fill="#00FF5D"/>
<path d="M64.0898 55.8535C64.0898 53.3088 64.0898 50.8413 64.0898 48.3737C65.0153 48.091 70.1053 48.0396 71.6991 48.2966C71.6991 50.7898 71.6991 53.2831 71.6991 55.8021C70.7994 56.0591 65.7608 56.1105 64.0898 55.8535Z" fill="#00FF5D"/>
<path d="M71.6454 39.8143C69.1261 39.8143 66.6583 39.8143 64.1133 39.8143C64.1133 37.2182 64.1133 34.6735 64.1133 32.0518C66.6326 32.0518 69.0747 32.0518 71.5426 32.0518C71.8254 32.9514 71.9025 37.9636 71.6454 39.8143Z" fill="#00FF5D"/>
<path d="M135.604 199.897C133.162 199.897 130.694 199.897 128.252 199.897C128.021 198.946 127.943 193.779 128.175 192.16C129.383 191.929 130.617 192.083 131.825 192.057C133.059 192.031 134.293 192.057 135.527 192.057C135.836 192.982 135.887 198.432 135.604 199.897Z" fill="#00FF5D"/>
<path d="M144.09 151.78C144.09 149.209 144.09 146.69 144.09 144.12C146.712 144.12 149.231 144.12 151.853 144.12C151.853 146.69 151.853 149.184 151.853 151.703C151.031 151.985 145.709 152.037 144.09 151.78Z" fill="#00FF5D"/>
<path d="M160.055 39.6864C160.055 31.8982 160.055 24.0586 160.055 16.2447C160.08 16.219 160.106 16.1933 160.132 16.1676C160.158 16.1419 160.209 16.0905 160.235 16.0905C160.569 16.0648 160.929 16.0391 161.263 16.0391C168.667 16.0391 176.096 16.0648 183.499 16.0648C183.577 16.0648 183.654 16.1419 183.782 16.219C183.782 24.0072 183.782 31.8211 183.782 39.635C183.731 39.6864 183.705 39.7121 183.679 39.7378C183.654 39.7635 183.602 39.8149 183.577 39.8149C183.242 39.8406 182.908 39.892 182.548 39.892C175.145 39.892 167.715 39.8663 160.312 39.8406C160.26 39.8406 160.183 39.7635 160.055 39.6864Z" fill="#00FF5D"/>
<path d="M16.0703 183.935C16.0703 175.966 16.0703 168.075 16.0703 160.184C17.0215 159.953 37.8184 159.902 39.6436 160.107C39.8749 161.058 39.9264 182.572 39.6693 183.96C31.8544 183.935 23.9881 183.935 16.0703 183.935Z" fill="#00FF5D"/>
<path d="M39.7721 16.1162C39.7721 24.0329 39.7721 31.8982 39.7721 39.815C31.8544 39.815 23.9881 39.815 16.0703 39.815C16.0703 31.8982 16.0703 24.0329 16.0703 16.1162C24.0138 16.1162 31.8544 16.1162 39.7721 16.1162Z" fill="#00FF5D"/>
<path d="M103.909 64.0273C103.909 66.7005 103.909 69.348 103.909 72.0212C101.235 72.0212 98.5876 72.0212 95.9141 72.0212C95.9398 69.8878 95.9655 67.7544 95.9655 65.6467C95.9655 65.184 95.9655 64.7213 95.9655 64.1045C98.6647 64.0787 101.287 64.053 103.909 64.0273Z" fill="#00FF5D"/>
</g>
<defs>
<clipPath id="clip0_5364_152314">
<rect width="200" height="200" fill="white"/>
</clipPath>
</defs>
</svg>
