<svg width="489" height="139" viewBox="0 0 489 139" fill="none" xmlns="http://www.w3.org/2000/svg">
<mask id="mask0_5364_154561" style="mask-type:luminance" maskUnits="userSpaceOnUse" x="0" y="0" width="489" height="139">
<path d="M488.585 0H0V139H488.585V0Z" fill="white"/>
</mask>
<g mask="url(#mask0_5364_154561)">
<mask id="mask1_5364_154561" style="mask-type:luminance" maskUnits="userSpaceOnUse" x="-3540" y="-737" width="4449" height="2503">
<path d="M908.133 -736.7H-3539.87V1765.3H908.133V-736.7Z" fill="white"/>
</mask>
<g mask="url(#mask1_5364_154561)">
<path d="M194.133 86.6434C198.767 86.6434 202.937 85.0217 205.948 82.01C209.192 78.7667 210.582 74.8284 210.582 69.9634C210.582 65.0984 208.96 61.16 205.948 57.9167C202.705 54.6734 198.767 53.0517 194.133 53.0517C189.5 53.0517 185.33 54.6734 182.318 57.9167C179.075 61.16 177.685 65.0984 177.685 69.9634C177.685 74.8284 179.307 78.7667 182.318 82.01C185.562 85.2534 189.5 86.6434 194.133 86.6434ZM210.582 43.5534H221.933V96.1417H210.582V88.4967C206.18 94.5201 200.157 97.5317 192.28 97.5317C185.098 97.5317 179.075 94.9834 173.747 89.6551C168.418 84.3267 166.102 77.6084 166.102 69.9634C166.102 62.3184 168.65 55.6001 173.747 50.2717C178.843 44.9434 184.867 42.395 192.28 42.395C200.157 42.395 206.412 45.4067 210.582 51.1984V43.5534Z" fill="white"/>
</g>
<mask id="mask2_5364_154561" style="mask-type:luminance" maskUnits="userSpaceOnUse" x="-3540" y="-737" width="4449" height="2503">
<path d="M908.133 -736.7H-3539.87V1765.3H908.133V-736.7Z" fill="white"/>
</mask>
<g mask="url(#mask2_5364_154561)">
<path d="M242.32 19.4597H230.969V96.1414H242.32V19.4597Z" fill="white"/>
</g>
<mask id="mask3_5364_154561" style="mask-type:luminance" maskUnits="userSpaceOnUse" x="-3540" y="-737" width="4449" height="2503">
<path d="M908.133 -736.7H-3539.87V1765.3H908.133V-736.7Z" fill="white"/>
</mask>
<g mask="url(#mask3_5364_154561)">
<path d="M290.741 65.5617C289.119 56.99 283.096 52.5884 275.683 52.5884C267.343 52.5884 261.319 57.4534 259.929 65.5617H290.741ZM259.929 74.8284C261.551 82.705 268.038 87.3384 276.61 87.3384C282.633 87.3384 287.034 85.0217 290.046 80.8517L299.313 86.4117C294.216 94.0567 286.571 97.7634 276.378 97.7634C267.806 97.7634 261.088 95.215 255.76 89.8867C250.431 84.5584 247.883 78.0717 247.883 69.9634C247.883 62.0867 250.431 55.6001 255.528 50.2717C260.625 44.9434 267.343 42.395 275.451 42.395C283.56 42.395 289.351 45.175 294.216 50.5034C299.081 55.8317 301.629 62.55 301.629 70.195C301.629 71.3534 301.629 72.975 301.166 74.8284H259.929Z" fill="white"/>
</g>
<mask id="mask4_5364_154561" style="mask-type:luminance" maskUnits="userSpaceOnUse" x="-3540" y="-737" width="4449" height="2503">
<path d="M908.133 -736.7H-3539.87V1765.3H908.133V-736.7Z" fill="white"/>
</mask>
<g mask="url(#mask4_5364_154561)">
<path d="M385.03 63.4764V96.1414H373.679V64.1714C373.679 56.9898 369.741 52.8197 363.486 52.8197C356.536 52.8197 352.134 57.453 352.134 66.7197V96.1414H340.782V64.1714C340.782 56.9898 337.307 52.8197 331.052 52.8197C324.334 52.8197 319.469 57.453 319.469 66.7197V96.1414H308.117V43.553H319.469V49.8081C322.712 44.7114 327.809 42.1631 334.527 42.1631C341.246 42.1631 346.111 44.943 349.354 50.503C352.829 44.943 358.157 42.1631 365.339 42.1631C376.922 42.1631 385.03 50.503 385.03 63.4764Z" fill="white"/>
</g>
<mask id="mask5_5364_154561" style="mask-type:luminance" maskUnits="userSpaceOnUse" x="-3540" y="-737" width="4449" height="2503">
<path d="M908.133 -736.7H-3539.87V1765.3H908.133V-736.7Z" fill="white"/>
</mask>
<g mask="url(#mask5_5364_154561)">
<path d="M408.195 89.655C408.195 94.0567 404.72 97.5317 400.318 97.5317C395.916 97.5317 392.441 94.0567 392.441 89.655C392.441 85.2534 395.685 81.7783 400.318 81.7783C404.72 81.7783 408.195 85.2534 408.195 89.655Z" fill="white"/>
</g>
<mask id="mask6_5364_154561" style="mask-type:luminance" maskUnits="userSpaceOnUse" x="-3540" y="-737" width="4449" height="2503">
<path d="M908.133 -736.7H-3539.87V1765.3H908.133V-736.7Z" fill="white"/>
</mask>
<g mask="url(#mask6_5364_154561)">
<path d="M438.778 86.6434C443.411 86.6434 447.581 85.0217 450.593 82.01C453.836 78.7667 455.226 74.8284 455.226 69.9634C455.226 65.0984 453.604 61.16 450.593 57.9167C447.349 54.6734 443.411 53.0517 438.778 53.0517C434.144 53.0517 429.974 54.6734 426.963 57.9167C423.719 61.16 422.329 65.0984 422.329 69.9634C422.329 74.8284 423.951 78.7667 426.963 82.01C429.974 85.2534 433.913 86.6434 438.778 86.6434ZM455.226 43.5534H466.578V96.1417H455.226V88.4967C450.824 94.5201 444.801 97.5317 436.924 97.5317C429.743 97.5317 423.719 94.9834 418.391 89.6551C413.063 84.3267 410.746 77.6084 410.746 69.9634C410.746 62.3184 413.294 55.6001 418.391 50.2717C423.488 44.9434 429.511 42.395 436.924 42.395C444.801 42.395 451.056 45.4067 455.226 51.1984V43.5534Z" fill="white"/>
</g>
<mask id="mask7_5364_154561" style="mask-type:luminance" maskUnits="userSpaceOnUse" x="-3540" y="-737" width="4449" height="2503">
<path d="M908.133 -736.7H-3539.87V1765.3H908.133V-736.7Z" fill="white"/>
</mask>
<g mask="url(#mask7_5364_154561)">
<path d="M475.609 96.1415V43.5531H486.96V96.1415H475.609ZM476.304 33.5915C473.524 30.5798 473.524 26.1782 476.304 23.3982C479.084 20.3865 483.717 20.3865 486.497 23.3982C489.277 26.1782 489.277 30.5798 486.497 33.5915C483.485 36.3715 479.084 36.3715 476.304 33.5915Z" fill="white"/>
</g>
<mask id="mask8_5364_154561" style="mask-type:luminance" maskUnits="userSpaceOnUse" x="-3540" y="-737" width="4449" height="2503">
<path d="M908.133 -736.7H-3539.87V1765.3H908.133V-736.7Z" fill="white"/>
</mask>
<g mask="url(#mask8_5364_154561)">
<path d="M69.2684 3.70656C33.1284 3.70656 3.70661 33.3599 3.70661 69.4999C3.70661 105.64 33.1284 135.293 69.2684 135.293C105.408 135.293 134.83 105.64 134.83 69.4999C134.83 33.3599 105.408 3.70656 69.2684 3.70656ZM69.2684 139C31.0434 139 0 107.725 0 69.4999C0 31.2749 31.0434 -0.00012207 69.2684 -0.00012207C107.493 -0.00012207 138.537 31.2749 138.537 69.4999C138.537 107.725 107.493 139 69.2684 139Z" fill="white"/>
</g>
<mask id="mask9_5364_154561" style="mask-type:luminance" maskUnits="userSpaceOnUse" x="-3540" y="-737" width="4449" height="2503">
<path d="M908.133 -736.7H-3539.87V1765.3H908.133V-736.7Z" fill="white"/>
</mask>
<g mask="url(#mask9_5364_154561)">
<path d="M69.2704 3.70656C37.0687 3.70656 10.6586 30.1165 10.6586 62.5499C10.6586 94.9832 36.837 121.393 69.2704 121.393C101.472 121.393 127.882 94.9832 127.882 62.5499C127.882 29.8849 101.472 3.70656 69.2704 3.70656ZM69.2704 124.637C34.9837 124.637 7.18359 96.6049 7.18359 62.3182C7.18359 28.0315 34.9837 -0.00012207 69.2704 -0.00012207C103.557 -0.00012207 131.357 28.0315 131.357 62.3182C131.357 96.8365 103.557 124.637 69.2704 124.637Z" fill="white"/>
</g>
<mask id="mask10_5364_154561" style="mask-type:luminance" maskUnits="userSpaceOnUse" x="-3540" y="-737" width="4449" height="2503">
<path d="M908.133 -736.7H-3539.87V1765.3H908.133V-736.7Z" fill="white"/>
</mask>
<g mask="url(#mask10_5364_154561)">
<path d="M69.2684 3.70656C41.0051 3.70656 17.8383 26.8732 17.8383 55.3682C17.8383 83.8632 41.0051 107.03 69.2684 107.03C97.5318 107.03 120.698 83.8632 120.698 55.3682C120.698 26.6415 97.5318 3.70656 69.2684 3.70656ZM69.2684 110.273C38.9201 110.273 14.3633 85.4848 14.3633 55.1365C14.3633 24.7882 38.9201 -0.00012207 69.2684 -0.00012207C99.6168 -0.00012207 124.173 24.7882 124.173 55.1365C124.173 85.7165 99.6168 110.505 69.2684 110.273Z" fill="white"/>
</g>
<mask id="mask11_5364_154561" style="mask-type:luminance" maskUnits="userSpaceOnUse" x="-3540" y="-737" width="4449" height="2503">
<path d="M908.133 -736.7H-3539.87V1765.3H908.133V-736.7Z" fill="white"/>
</mask>
<g mask="url(#mask11_5364_154561)">
<path d="M69.2677 3.70669C44.9427 3.70669 25.0194 23.63 25.0194 48.1866C25.0194 72.7433 44.9427 92.6667 69.2677 92.6667C93.5927 92.6667 113.516 72.7433 113.516 48.1866C113.516 23.63 93.5927 3.70669 69.2677 3.70669ZM69.2677 96.1417C42.8577 96.1417 21.3125 74.5966 21.3125 48.1866C21.3125 21.7766 42.8577 0.231689 69.2677 0.231689C95.6777 0.231689 117.223 21.7766 117.223 48.1866C117.223 74.5966 95.6777 96.1417 69.2677 96.1417Z" fill="white"/>
</g>
<mask id="mask12_5364_154561" style="mask-type:luminance" maskUnits="userSpaceOnUse" x="-3540" y="-737" width="4449" height="2503">
<path d="M908.133 -736.7H-3539.87V1765.3H908.133V-736.7Z" fill="white"/>
</mask>
<g mask="url(#mask12_5364_154561)">
<path d="M69.2694 3.70669C48.8827 3.70669 32.2027 20.3867 32.2027 41.005C32.2027 61.6234 48.8827 78.3033 69.2694 78.3033C89.656 78.3033 106.336 61.6234 106.336 41.005C106.336 20.3867 89.656 3.70669 69.2694 3.70669ZM69.2694 81.7783C46.7977 81.7783 28.4961 63.4767 28.4961 41.005C28.4961 18.5334 46.7977 0.231689 69.2694 0.231689C91.741 0.231689 110.043 18.5334 110.043 41.005C110.043 63.4767 91.741 81.7783 69.2694 81.7783Z" fill="white"/>
</g>
<mask id="mask13_5364_154561" style="mask-type:luminance" maskUnits="userSpaceOnUse" x="-3540" y="-737" width="4449" height="2503">
<path d="M908.133 -736.7H-3539.87V1765.3H908.133V-736.7Z" fill="white"/>
</mask>
<g mask="url(#mask13_5364_154561)">
<path d="M69.2635 3.70643C52.8152 3.70643 39.1469 17.1431 39.1469 33.8231C39.1469 50.5031 52.5835 63.9398 69.2635 63.9398C85.7119 63.9398 99.3802 50.5031 99.3802 33.8231C99.1485 17.1431 85.7119 3.70643 69.2635 3.70643ZM69.2635 67.4148C50.7302 67.4148 35.6719 52.3564 35.6719 33.5914C35.6719 15.0581 50.7302 -0.231934 69.2635 -0.231934C87.7969 -0.231934 102.855 14.8264 102.855 33.5914C102.855 52.3564 87.7969 67.4148 69.2635 67.4148Z" fill="white"/>
</g>
<mask id="mask14_5364_154561" style="mask-type:luminance" maskUnits="userSpaceOnUse" x="-3540" y="-737" width="4449" height="2503">
<path d="M908.133 -736.7H-3539.87V1765.3H908.133V-736.7Z" fill="white"/>
</mask>
<g mask="url(#mask14_5364_154561)">
<path d="M69.2694 3.70643C56.7594 3.70643 46.3344 13.8997 46.3344 26.6414C46.3344 39.3831 56.5278 49.5764 69.2694 49.5764C81.7794 49.5764 92.2045 39.3831 92.2045 26.6414C92.2045 13.8997 81.7794 3.70643 69.2694 3.70643ZM69.2694 53.0514C54.6744 53.0514 42.8594 41.2364 42.8594 26.4097C42.8594 11.8147 54.6744 -0.231934 69.2694 -0.231934C83.8644 -0.231934 95.6795 11.5831 95.6795 26.4097C95.6795 41.2364 83.8644 53.0514 69.2694 53.0514Z" fill="white"/>
</g>
<mask id="mask15_5364_154561" style="mask-type:luminance" maskUnits="userSpaceOnUse" x="-3540" y="-737" width="4449" height="2503">
<path d="M908.133 -736.7H-3539.87V1765.3H908.133V-736.7Z" fill="white"/>
</mask>
<g mask="url(#mask15_5364_154561)">
<path d="M69.2687 3.70656C60.697 3.70656 53.5152 10.8882 53.5152 19.4599C53.5152 28.0315 60.697 35.2132 69.2687 35.2132C77.8403 35.2132 85.0218 28.0315 85.0218 19.4599C85.0218 10.8882 77.8403 3.70656 69.2687 3.70656ZM69.2687 38.9198C58.612 38.9198 49.8086 30.1165 49.8086 19.4599C49.8086 8.8032 58.3803 -0.00012207 69.2687 -0.00012207C79.9253 -0.00012207 88.7287 8.8032 88.7287 19.4599C88.7287 30.1165 79.9253 38.9198 69.2687 38.9198Z" fill="white"/>
</g>
</g>
</svg>
